<svg xmlns="http://www.w3.org/2000/svg" xmlns:xlink="http://www.w3.org/1999/xlink" x="0" y="0" width="702" height="312" style="
        width:702px;
        height:312px;
        background: transparent;
        fill: none;
">
        <svg xmlns="http://www.w3.org/2000/svg"/>
        
        <svg xmlns="http://www.w3.org/2000/svg" class="role-diagram-draw-area" style="overflow: visible;"><g class="shapes-region" style="stroke: black; fill: none;"><g class="composite-shape" data-amt="diagram/shapes/plot" transform="matrix(1,0,0,1,20,10)"><g><g><g class="test-xgi"><line x1="89.99999999999999" y1="0" x2="89.99999999999999" y2="270" fill="none" stroke="#c3c3c3" stroke-width="0.5"/><line x1="200" y1="0" x2="200" y2="270" fill="none" stroke="#c3c3c3" stroke-width="0.5"/><line x1="310" y1="0" x2="310" y2="270" fill="none" stroke="#c3c3c3" stroke-width="0.5"/><line x1="419.99999999999994" y1="0" x2="419.99999999999994" y2="270" fill="none" stroke="#c3c3c3" stroke-width="0.5"/><line x1="530" y1="0" x2="530" y2="270" fill="none" stroke="#c3c3c3" stroke-width="0.5"/></g><g class="test-ygi"><line x1="0" y1="210" x2="620" y2="210" fill="none" stroke="#c3c3c3" stroke-width="0.5"/><line x1="0" y1="130" x2="620" y2="130" fill="none" stroke="#c3c3c3" stroke-width="0.5"/><line x1="0" y1="50" x2="620" y2="50" fill="none" stroke="#c3c3c3" stroke-width="0.5"/></g></g><g><g class="test-xti" style="font-family: Asana-Math, Asana;"><line x1="0" y1="130" x2="616" y2="130" fill="none" stroke="rgb(50,50,50)" stroke-opacity="1" stroke-width="1"/><line x1="89.99999999999999" y1="126" x2="89.99999999999999" y2="134" fill="none" stroke="rgb(50,50,50)" stroke-opacity="1" stroke-width="1"/><line x1="200" y1="126" x2="200" y2="134" fill="none" stroke="rgb(50,50,50)" stroke-opacity="1" stroke-width="1"/><line x1="419.99999999999994" y1="126" x2="419.99999999999994" y2="134" fill="none" stroke="rgb(50,50,50)" stroke-opacity="1" stroke-width="1"/><line x1="530" y1="126" x2="530" y2="134" fill="none" stroke="rgb(50,50,50)" stroke-opacity="1" stroke-width="1"/><path d="M611,126.4 L619,130 L611,133.6 Z" stroke="none" stroke-width="1" fill="rgb(50,50,50)" fill-opacity="1"/></g><g class="test-yti" style="font-family: Asana-Math, Asana;"><line x1="310" y1="4" x2="310" y2="270" fill="none" stroke="rgb(50,50,50)" stroke-opacity="1" stroke-width="1"/><line x1="306" y1="210" x2="314" y2="210" fill="none" stroke="rgb(50,50,50)" stroke-opacity="1" stroke-width="1"/><line x1="306" y1="50" x2="314" y2="50" fill="none" stroke="rgb(50,50,50)" stroke-opacity="1" stroke-width="1"/><path d="M306.4,9 L310,1 L313.6,9 Z" stroke="none" stroke-width="1" fill="rgb(50,50,50)" fill-opacity="1"/></g><g class="test-plot-expression"><defs><clipPath id="cpgowrv8qhwdg-full-view"><rect x="1" y="1" width="618" height="268"/></clipPath></defs><g clip-path="url(#cpgowrv8qhwdg-full-view)"><path d=" M0.00,-270.00 L0.56,-270.00 L1.13,-270.00 L1.69,-270.00 L2.26,-270.00 L2.82,-270.00 L3.38,-270.00 L3.95,-270.00 L4.51,-270.00 L5.08,-270.00 L5.64,-270.00 L6.21,-270.00 L6.77,-270.00 L7.33,-270.00 L7.90,-270.00 L8.46,-270.00 L9.03,-270.00 L9.59,-270.00 L10.15,-270.00 L10.72,-270.00 L11.28,-270.00 L11.85,-270.00 L12.41,-270.00 L12.98,-270.00 L13.54,-270.00 L14.10,-270.00 L14.67,-270.00 L15.23,-270.00 L15.80,-270.00 L16.36,-270.00 L16.92,-270.00 L17.49,-270.00 L18.05,-270.00 L18.62,-270.00 L19.18,-270.00 L19.75,-270.00 L20.31,-270.00 L20.87,-270.00 L21.44,-270.00 L22.00,-270.00 L22.57,-270.00 L23.13,-270.00 L23.69,-270.00 L24.26,-270.00 L24.82,-270.00 L25.39,-270.00 L25.95,-270.00 L26.52,-270.00 L27.08,-270.00 L27.64,-270.00 L28.21,-270.00 L28.77,-270.00 L29.34,-270.00 L29.90,-270.00 L30.46,-270.00 L31.03,-270.00 L31.59,-270.00 L32.16,-270.00 L32.72,-270.00 L33.28,-270.00 L33.85,-270.00 L34.41,-270.00 L34.98,-270.00 L35.54,-270.00 L36.11,-270.00 L36.67,-270.00 L37.23,-270.00 L37.80,-270.00 L38.36,-270.00 L38.93,-270.00 L39.49,-270.00 L40.05,-270.00 L40.62,-270.00 L41.18,-270.00 L41.75,-270.00 L42.31,-270.00 L42.88,-270.00 L43.44,-270.00 L44.00,-270.00 L44.57,-270.00 L45.13,-270.00 L45.70,-270.00 L46.26,-270.00 L46.82,-270.00 L47.39,-270.00 L47.95,-270.00 L48.52,-270.00 L49.08,-270.00 L49.65,-270.00 L50.21,-270.00 L50.77,-270.00 L51.34,-270.00 L51.90,-270.00 L52.47,-270.00 L53.03,-270.00 L53.59,-270.00 L54.16,-270.00 L54.72,-270.00 L55.29,-270.00 L55.85,-270.00 L56.41,-270.00 L56.98,-270.00 L57.54,-270.00 L58.11,-270.00 L58.67,-270.00 L59.24,-270.00 L59.80,-270.00 L60.36,-270.00 L60.93,-270.00 L61.49,-270.00 L62.06,-270.00 L62.62,-270.00 L63.18,-270.00 L63.75,-270.00 L64.31,-269.09 L64.88,-267.26 L65.44,-265.43 L66.01,-263.61 L66.57,-261.79 L67.13,-259.98 L67.70,-258.17 L68.26,-256.36 L68.83,-254.56 L69.39,-252.76 L69.95,-250.97 L70.52,-249.18 L71.08,-247.40 L71.65,-245.62 L72.21,-243.84 L72.78,-242.07 L73.34,-240.30 L73.90,-238.54 L74.47,-236.78 L75.03,-235.03 L75.60,-233.27 L76.16,-231.53 L76.72,-229.79 L77.29,-228.05 L77.85,-226.31 L78.42,-224.58 L78.98,-222.86 L79.55,-221.14 L80.11,-219.42 L80.67,-217.71 L81.24,-216.00 L81.80,-214.29 L82.37,-212.59 L82.93,-210.90 L83.49,-209.21 L84.06,-207.52 L84.62,-205.84 L85.19,-204.16 L85.75,-202.48 L86.31,-200.81 L86.88,-199.14 L87.44,-197.48 L88.01,-195.82 L88.57,-194.17 L89.14,-192.52 L89.70,-190.87 L90.26,-189.23 L90.83,-187.60 L91.39,-185.96 L91.96,-184.33 L92.52,-182.71 L93.08,-181.09 L93.65,-179.47 L94.21,-177.86 L94.78,-176.25 L95.34,-174.65 L95.91,-173.05 L96.47,-171.46 L97.03,-169.87 L97.60,-168.28 L98.16,-166.70 L98.73,-165.12 L99.29,-163.54 L99.85,-161.97 L100.42,-160.41 L100.98,-158.85 L101.55,-157.29 L102.11,-155.74 L102.68,-154.19 L103.24,-152.64 L103.80,-151.10 L104.37,-149.57 L104.93,-148.04 L105.50,-146.51 L106.06,-144.99 L106.62,-143.47 L107.19,-141.95 L107.75,-140.44 L108.32,-138.93 L108.88,-137.43 L109.44,-135.93 L110.01,-134.44 L110.57,-132.95 L111.14,-131.46 L111.70,-129.98 L112.27,-128.50 L112.83,-127.03 L113.39,-125.56 L113.96,-124.10 L114.52,-122.64 L115.09,-121.18 L115.65,-119.73 L116.21,-118.28 L116.78,-116.84 L117.34,-115.40 L117.91,-113.96 L118.47,-112.53 L119.04,-111.11 L119.60,-109.68 L120.16,-108.27 L120.73,-106.85 L121.29,-105.44 L121.86,-104.04 L122.42,-102.64 L122.98,-101.24 L123.55,-99.85 L124.11,-98.46 L124.68,-97.07 L125.24,-95.69 L125.81,-94.32 L126.37,-92.94 L126.93,-91.58 L127.50,-90.21 L128.06,-88.85 L128.63,-87.50 L129.19,-86.15 L129.75,-84.80 L130.32,-83.46 L130.88,-82.12 L131.45,-80.79 L132.01,-79.46 L132.58,-78.13 L133.14,-76.81 L133.70,-75.49 L134.27,-74.18 L134.83,-72.87 L135.40,-71.56 L135.96,-70.26 L136.52,-68.97 L137.09,-67.68 L137.65,-66.39 L138.22,-65.10 L138.78,-63.83 L139.34,-62.55 L139.91,-61.28 L140.47,-60.01 L141.04,-58.75 L141.60,-57.49 L142.17,-56.24 L142.73,-54.99 L143.29,-53.74 L143.86,-52.50 L144.42,-51.26 L144.99,-50.03 L145.55,-48.80 L146.11,-47.58 L146.68,-46.36 L147.24,-45.14 L147.81,-43.93 L148.37,-42.72 L148.94,-41.52 L149.50,-40.32 L150.06,-39.12 L150.63,-37.93 L151.19,-36.74 L151.76,-35.56 L152.32,-34.38 L152.88,-33.21 L153.45,-32.04 L154.01,-30.87 L154.58,-29.71 L155.14,-28.55 L155.71,-27.40 L156.27,-26.25 L156.83,-25.11 L157.40,-23.97 L157.96,-22.83 L158.53,-21.70 L159.09,-20.57 L159.65,-19.45 L160.22,-18.33 L160.78,-17.21 L161.35,-16.10 L161.91,-14.99 L162.47,-13.89 L163.04,-12.79 L163.60,-11.70 L164.17,-10.61 L164.73,-9.52 L165.30,-8.44 L165.86,-7.36 L166.42,-6.29 L166.99,-5.22 L167.55,-4.16 L168.12,-3.10 L168.68,-2.04 L169.24,-0.99 L169.81,0.06 L170.37,1.10 L170.94,2.14 L171.50,3.18 L172.07,4.21 L172.63,5.24 L173.19,6.26 L173.76,7.28 L174.32,8.29 L174.89,9.30 L175.45,10.31 L176.01,11.31 L176.58,12.31 L177.14,13.30 L177.71,14.29 L178.27,15.27 L178.84,16.25 L179.40,17.23 L179.96,18.20 L180.53,19.17 L181.09,20.13 L181.66,21.09 L182.22,22.05 L182.78,23.00 L183.35,23.95 L183.91,24.89 L184.48,25.83 L185.04,26.76 L185.61,27.69 L186.17,28.62 L186.73,29.54 L187.30,30.46 L187.86,31.37 L188.43,32.28 L188.99,33.18 L189.55,34.08 L190.12,34.98 L190.68,35.87 L191.25,36.76 L191.81,37.64 L192.37,38.52 L192.94,39.40 L193.50,40.27 L194.07,41.14 L194.63,42.00 L195.20,42.86 L195.76,43.71 L196.32,44.56 L196.89,45.41 L197.45,46.25 L198.02,47.09 L198.58,47.92 L199.14,48.75 L199.71,49.58 L200.27,50.40 L200.84,51.21 L201.40,52.03 L201.97,52.83 L202.53,53.64 L203.09,54.44 L203.66,55.23 L204.22,56.02 L204.79,56.81 L205.35,57.59 L205.91,58.37 L206.48,59.15 L207.04,59.92 L207.61,60.68 L208.17,61.44 L208.74,62.20 L209.30,62.95 L209.86,63.70 L210.43,64.45 L210.99,65.19 L211.56,65.93 L212.12,66.66 L212.68,67.39 L213.25,68.11 L213.81,68.83 L214.38,69.55 L214.94,70.26 L215.51,70.96 L216.07,71.67 L216.63,72.36 L217.20,73.06 L217.76,73.75 L218.33,74.44 L218.89,75.12 L219.45,75.79 L220.02,76.47 L220.58,77.14 L221.15,77.80 L221.71,78.46 L222.27,79.12 L222.84,79.77 L223.40,80.42 L223.97,81.06 L224.53,81.70 L225.10,82.34 L225.66,82.97 L226.22,83.60 L226.79,84.22 L227.35,84.84 L227.92,85.45 L228.48,86.06 L229.04,86.67 L229.61,87.27 L230.17,87.87 L230.74,88.46 L231.30,89.05 L231.87,89.64 L232.43,90.22 L232.99,90.79 L233.56,91.37 L234.12,91.93 L234.69,92.50 L235.25,93.06 L235.81,93.61 L236.38,94.16 L236.94,94.71 L237.51,95.25 L238.07,95.79 L238.64,96.33 L239.20,96.86 L239.76,97.38 L240.33,97.91 L240.89,98.42 L241.46,98.94 L242.02,99.45 L242.58,99.95 L243.15,100.45 L243.71,100.95 L244.28,101.44 L244.84,101.93 L245.40,102.41 L245.97,102.89 L246.53,103.37 L247.10,103.84 L247.66,104.31 L248.23,104.77 L248.79,105.23 L249.35,105.68 L249.92,106.13 L250.48,106.58 L251.05,107.02 L251.61,107.46 L252.17,107.89 L252.74,108.32 L253.30,108.75 L253.87,109.17 L254.43,109.58 L255.00,110.00 L255.56,110.40 L256.12,110.81 L256.69,111.21 L257.25,111.60 L257.82,112.00 L258.38,112.38 L258.94,112.77 L259.51,113.14 L260.07,113.52 L260.64,113.89 L261.20,114.26 L261.77,114.62 L262.33,114.98 L262.89,115.33 L263.46,115.68 L264.02,116.02 L264.59,116.36 L265.15,116.70 L265.71,117.03 L266.28,117.36 L266.84,117.69 L267.41,118.01 L267.97,118.32 L268.54,118.63 L269.10,118.94 L269.66,119.24 L270.23,119.54 L270.79,119.84 L271.36,120.13 L271.92,120.41 L272.48,120.69 L273.05,120.97 L273.61,121.25 L274.18,121.52 L274.74,121.78 L275.30,122.04 L275.87,122.30 L276.43,122.55 L277.00,122.80 L277.56,123.04 L278.13,123.28 L278.69,123.52 L279.25,123.75 L279.82,123.98 L280.38,124.20 L280.95,124.42 L281.51,124.63 L282.07,124.84 L282.64,125.05 L283.20,125.25 L283.77,125.45 L284.33,125.64 L284.90,125.83 L285.46,126.02 L286.02,126.20 L286.59,126.38 L287.15,126.55 L287.72,126.72 L288.28,126.88 L288.84,127.04 L289.41,127.20 L289.97,127.35 L290.54,127.50 L291.10,127.64 L291.67,127.78 L292.23,127.91 L292.79,128.04 L293.36,128.17 L293.92,128.29 L294.49,128.41 L295.05,128.52 L295.61,128.63 L296.18,128.74 L296.74,128.84 L297.31,128.93 L297.87,129.03 L298.43,129.12 L299.00,129.20 L299.56,129.28 L300.13,129.36 L300.69,129.43 L301.26,129.49 L301.82,129.56 L302.38,129.62 L302.95,129.67 L303.51,129.72 L304.08,129.77 L304.64,129.81 L305.20,129.85 L305.77,129.88 L306.33,129.91 L306.90,129.94 L307.46,129.96 L308.03,129.97 L308.59,129.99 L309.15,130.00 L309.72,130.00 L310.28,130.00 L310.85,130.00 L311.41,129.99 L311.97,129.97 L312.54,129.96 L313.10,129.94 L313.67,129.91 L314.23,129.88 L314.80,129.85 L315.36,129.81 L315.92,129.77 L316.49,129.72 L317.05,129.67 L317.62,129.62 L318.18,129.56 L318.74,129.49 L319.31,129.43 L319.87,129.36 L320.44,129.28 L321.00,129.20 L321.57,129.12 L322.13,129.03 L322.69,128.93 L323.26,128.84 L323.82,128.74 L324.39,128.63 L324.95,128.52 L325.51,128.41 L326.08,128.29 L326.64,128.17 L327.21,128.04 L327.77,127.91 L328.33,127.78 L328.90,127.64 L329.46,127.50 L330.03,127.35 L330.59,127.20 L331.16,127.04 L331.72,126.88 L332.28,126.72 L332.85,126.55 L333.41,126.38 L333.98,126.20 L334.54,126.02 L335.10,125.83 L335.67,125.64 L336.23,125.45 L336.80,125.25 L337.36,125.05 L337.93,124.84 L338.49,124.63 L339.05,124.42 L339.62,124.20 L340.18,123.98 L340.75,123.75 L341.31,123.52 L341.87,123.28 L342.44,123.04 L343.00,122.80 L343.57,122.55 L344.13,122.30 L344.70,122.04 L345.26,121.78 L345.82,121.52 L346.39,121.25 L346.95,120.97 L347.52,120.69 L348.08,120.41 L348.64,120.13 L349.21,119.84 L349.77,119.54 L350.34,119.24 L350.90,118.94 L351.46,118.63 L352.03,118.32 L352.59,118.01 L353.16,117.69 L353.72,117.36 L354.29,117.03 L354.85,116.70 L355.41,116.36 L355.98,116.02 L356.54,115.68 L357.11,115.33 L357.67,114.98 L358.23,114.62 L358.80,114.26 L359.36,113.89 L359.93,113.52 L360.49,113.14 L361.06,112.77 L361.62,112.38 L362.18,112.00 L362.75,111.60 L363.31,111.21 L363.88,110.81 L364.44,110.40 L365.00,110.00 L365.57,109.58 L366.13,109.17 L366.70,108.75 L367.26,108.32 L367.83,107.89 L368.39,107.46 L368.95,107.02 L369.52,106.58 L370.08,106.13 L370.65,105.68 L371.21,105.23 L371.77,104.77 L372.34,104.31 L372.90,103.84 L373.47,103.37 L374.03,102.89 L374.60,102.41 L375.16,101.93 L375.72,101.44 L376.29,100.95 L376.85,100.45 L377.42,99.95 L377.98,99.45 L378.54,98.94 L379.11,98.42 L379.67,97.91 L380.24,97.38 L380.80,96.86 L381.36,96.33 L381.93,95.79 L382.49,95.25 L383.06,94.71 L383.62,94.16 L384.19,93.61 L384.75,93.06 L385.31,92.50 L385.88,91.93 L386.44,91.37 L387.01,90.79 L387.57,90.22 L388.13,89.64 L388.70,89.05 L389.26,88.46 L389.83,87.87 L390.39,87.27 L390.96,86.67 L391.52,86.06 L392.08,85.45 L392.65,84.84 L393.21,84.22 L393.78,83.60 L394.34,82.97 L394.90,82.34 L395.47,81.70 L396.03,81.06 L396.60,80.42 L397.16,79.77 L397.73,79.12 L398.29,78.46 L398.85,77.80 L399.42,77.14 L399.98,76.47 L400.55,75.79 L401.11,75.12 L401.67,74.44 L402.24,73.75 L402.80,73.06 L403.37,72.36 L403.93,71.67 L404.49,70.96 L405.06,70.26 L405.62,69.55 L406.19,68.83 L406.75,68.11 L407.32,67.39 L407.88,66.66 L408.44,65.93 L409.01,65.19 L409.57,64.45 L410.14,63.70 L410.70,62.95 L411.26,62.20 L411.83,61.44 L412.39,60.68 L412.96,59.92 L413.52,59.15 L414.09,58.37 L414.65,57.59 L415.21,56.81 L415.78,56.02 L416.34,55.23 L416.91,54.44 L417.47,53.64 L418.03,52.83 L418.60,52.03 L419.16,51.21 L419.73,50.40 L420.29,49.58 L420.86,48.75 L421.42,47.92 L421.98,47.09 L422.55,46.25 L423.11,45.41 L423.68,44.56 L424.24,43.71 L424.80,42.86 L425.37,42.00 L425.93,41.14 L426.50,40.27 L427.06,39.40 L427.63,38.52 L428.19,37.64 L428.75,36.76 L429.32,35.87 L429.88,34.98 L430.45,34.08 L431.01,33.18 L431.57,32.28 L432.14,31.37 L432.70,30.46 L433.27,29.54 L433.83,28.62 L434.39,27.69 L434.96,26.76 L435.52,25.83 L436.09,24.89 L436.65,23.95 L437.22,23.00 L437.78,22.05 L438.34,21.09 L438.91,20.13 L439.47,19.17 L440.04,18.20 L440.60,17.23 L441.16,16.25 L441.73,15.27 L442.29,14.29 L442.86,13.30 L443.42,12.31 L443.99,11.31 L444.55,10.31 L445.11,9.30 L445.68,8.29 L446.24,7.28 L446.81,6.26 L447.37,5.24 L447.93,4.21 L448.50,3.18 L449.06,2.14 L449.63,1.10 L450.19,0.06 L450.76,-0.99 L451.32,-2.04 L451.88,-3.10 L452.45,-4.16 L453.01,-5.22 L453.58,-6.29 L454.14,-7.36 L454.70,-8.44 L455.27,-9.52 L455.83,-10.61 L456.40,-11.70 L456.96,-12.79 L457.53,-13.89 L458.09,-14.99 L458.65,-16.10 L459.22,-17.21 L459.78,-18.33 L460.35,-19.45 L460.91,-20.57 L461.47,-21.70 L462.04,-22.83 L462.60,-23.97 L463.17,-25.11 L463.73,-26.25 L464.29,-27.40 L464.86,-28.55 L465.42,-29.71 L465.99,-30.87 L466.55,-32.04 L467.12,-33.21 L467.68,-34.38 L468.24,-35.56 L468.81,-36.74 L469.37,-37.93 L469.94,-39.12 L470.50,-40.32 L471.06,-41.52 L471.63,-42.72 L472.19,-43.93 L472.76,-45.14 L473.32,-46.36 L473.89,-47.58 L474.45,-48.80 L475.01,-50.03 L475.58,-51.26 L476.14,-52.50 L476.71,-53.74 L477.27,-54.99 L477.83,-56.24 L478.40,-57.49 L478.96,-58.75 L479.53,-60.01 L480.09,-61.28 L480.66,-62.55 L481.22,-63.83 L481.78,-65.10 L482.35,-66.39 L482.91,-67.68 L483.48,-68.97 L484.04,-70.26 L484.60,-71.56 L485.17,-72.87 L485.73,-74.18 L486.30,-75.49 L486.86,-76.81 L487.42,-78.13 L487.99,-79.46 L488.55,-80.79 L489.12,-82.12 L489.68,-83.46 L490.25,-84.80 L490.81,-86.15 L491.37,-87.50 L491.94,-88.85 L492.50,-90.21 L493.07,-91.58 L493.63,-92.94 L494.19,-94.32 L494.76,-95.69 L495.32,-97.07 L495.89,-98.46 L496.45,-99.85 L497.02,-101.24 L497.58,-102.64 L498.14,-104.04 L498.71,-105.44 L499.27,-106.85 L499.84,-108.27 L500.40,-109.68 L500.96,-111.11 L501.53,-112.53 L502.09,-113.96 L502.66,-115.40 L503.22,-116.84 L503.79,-118.28 L504.35,-119.73 L504.91,-121.18 L505.48,-122.64 L506.04,-124.10 L506.61,-125.56 L507.17,-127.03 L507.73,-128.50 L508.30,-129.98 L508.86,-131.46 L509.43,-132.95 L509.99,-134.44 L510.56,-135.93 L511.12,-137.43 L511.68,-138.93 L512.25,-140.44 L512.81,-141.95 L513.38,-143.47 L513.94,-144.99 L514.50,-146.51 L515.07,-148.04 L515.63,-149.57 L516.20,-151.10 L516.76,-152.64 L517.32,-154.19 L517.89,-155.74 L518.45,-157.29 L519.02,-158.85 L519.58,-160.41 L520.15,-161.97 L520.71,-163.54 L521.27,-165.12 L521.84,-166.70 L522.40,-168.28 L522.97,-169.87 L523.53,-171.46 L524.09,-173.05 L524.66,-174.65 L525.22,-176.25 L525.79,-177.86 L526.35,-179.47 L526.92,-181.09 L527.48,-182.71 L528.04,-184.33 L528.61,-185.96 L529.17,-187.60 L529.74,-189.23 L530.30,-190.87 L530.86,-192.52 L531.43,-194.17 L531.99,-195.82 L532.56,-197.48 L533.12,-199.14 L533.69,-200.81 L534.25,-202.48 L534.81,-204.16 L535.38,-205.84 L535.94,-207.52 L536.51,-209.21 L537.07,-210.90 L537.63,-212.59 L538.20,-214.29 L538.76,-216.00 L539.33,-217.71 L539.89,-219.42 L540.45,-221.14 L541.02,-222.86 L541.58,-224.58 L542.15,-226.31 L542.71,-228.05 L543.28,-229.79 L543.84,-231.53 L544.40,-233.27 L544.97,-235.03 L545.53,-236.78 L546.10,-238.54 L546.66,-240.30 L547.22,-242.07 L547.79,-243.84 L548.35,-245.62 L548.92,-247.40 L549.48,-249.18 L550.05,-250.97 L550.61,-252.76 L551.17,-254.56 L551.74,-256.36 L552.30,-258.17 L552.87,-259.98 L553.43,-261.79 L553.99,-263.61 L554.56,-265.43 L555.12,-267.26 L555.69,-269.09 L556.25,-270.00 L556.82,-270.00 L557.38,-270.00 L557.94,-270.00 L558.51,-270.00 L559.07,-270.00 L559.64,-270.00 L560.20,-270.00 L560.76,-270.00 L561.33,-270.00 L561.89,-270.00 L562.46,-270.00 L563.02,-270.00 L563.59,-270.00 L564.15,-270.00 L564.71,-270.00 L565.28,-270.00 L565.84,-270.00 L566.41,-270.00 L566.97,-270.00 L567.53,-270.00 L568.10,-270.00 L568.66,-270.00 L569.23,-270.00 L569.79,-270.00 L570.35,-270.00 L570.92,-270.00 L571.48,-270.00 L572.05,-270.00 L572.61,-270.00 L573.18,-270.00 L573.74,-270.00 L574.30,-270.00 L574.87,-270.00 L575.43,-270.00 L576.00,-270.00 L576.56,-270.00 L577.12,-270.00 L577.69,-270.00 L578.25,-270.00 L578.82,-270.00 L579.38,-270.00 L579.95,-270.00 L580.51,-270.00 L581.07,-270.00 L581.64,-270.00 L582.20,-270.00 L582.77,-270.00 L583.33,-270.00 L583.89,-270.00 L584.46,-270.00 L585.02,-270.00 L585.59,-270.00 L586.15,-270.00 L586.72,-270.00 L587.28,-270.00 L587.84,-270.00 L588.41,-270.00 L588.97,-270.00 L589.54,-270.00 L590.10,-270.00 L590.66,-270.00 L591.23,-270.00 L591.79,-270.00 L592.36,-270.00 L592.92,-270.00 L593.48,-270.00 L594.05,-270.00 L594.61,-270.00 L595.18,-270.00 L595.74,-270.00 L596.31,-270.00 L596.87,-270.00 L597.43,-270.00 L598.00,-270.00 L598.56,-270.00 L599.13,-270.00 L599.69,-270.00 L600.25,-270.00 L600.82,-270.00 L601.38,-270.00 L601.95,-270.00 L602.51,-270.00 L603.08,-270.00 L603.64,-270.00 L604.20,-270.00 L604.77,-270.00 L605.33,-270.00 L605.90,-270.00 L606.46,-270.00 L607.02,-270.00 L607.59,-270.00 L608.15,-270.00 L608.72,-270.00 L609.28,-270.00 L609.85,-270.00 L610.41,-270.00 L610.97,-270.00 L611.54,-270.00 L612.10,-270.00 L612.67,-270.00 L613.23,-270.00 L613.79,-270.00 L614.36,-270.00 L614.92,-270.00 L615.49,-270.00 L616.05,-270.00 L616.62,-270.00 L617.18,-270.00 L617.74,-270.00 L618.31,-270.00 L618.87,-270.00 L619.44,-270.00 L620.00,-270.00" style="stroke-width: 2px; stroke: rgb(74, 144, 226); stroke-opacity: 0.8;"/><g><circle cx="420" cy="90" r="4" style="stroke-width: 3px; stroke: rgb(60, 180, 75); stroke-opacity: 0.8; fill: rgb(60, 180, 75); fill-opacity: 0.15;"/></g><g><circle cx="200" cy="50" r="4" style="stroke-width: 3px; stroke: rgb(245, 130, 49); stroke-opacity: 0.8; fill: rgb(245, 130, 49); fill-opacity: 0.15;"/></g><path d=" M0.00,268.98 L0.56,268.74 L1.13,268.50 L1.69,268.26 L2.26,268.02 L2.82,267.78 L3.38,267.54 L3.95,267.30 L4.51,267.06 L5.08,266.82 L5.64,266.58 L6.21,266.33 L6.77,266.09 L7.33,265.85 L7.90,265.61 L8.46,265.37 L9.03,265.13 L9.59,264.89 L10.15,264.65 L10.72,264.41 L11.28,264.17 L11.85,263.93 L12.41,263.69 L12.98,263.45 L13.54,263.21 L14.10,262.97 L14.67,262.73 L15.23,262.49 L15.80,262.25 L16.36,262.01 L16.92,261.77 L17.49,261.53 L18.05,261.29 L18.62,261.05 L19.18,260.80 L19.75,260.56 L20.31,260.32 L20.87,260.08 L21.44,259.84 L22.00,259.60 L22.57,259.36 L23.13,259.12 L23.69,258.88 L24.26,258.64 L24.82,258.40 L25.39,258.16 L25.95,257.92 L26.52,257.68 L27.08,257.44 L27.64,257.20 L28.21,256.96 L28.77,256.72 L29.34,256.48 L29.90,256.24 L30.46,256.00 L31.03,255.76 L31.59,255.52 L32.16,255.28 L32.72,255.03 L33.28,254.79 L33.85,254.55 L34.41,254.31 L34.98,254.07 L35.54,253.83 L36.11,253.59 L36.67,253.35 L37.23,253.11 L37.80,252.87 L38.36,252.63 L38.93,252.39 L39.49,252.15 L40.05,251.91 L40.62,251.67 L41.18,251.43 L41.75,251.19 L42.31,250.95 L42.88,250.71 L43.44,250.47 L44.00,250.23 L44.57,249.99 L45.13,249.75 L45.70,249.50 L46.26,249.26 L46.82,249.02 L47.39,248.78 L47.95,248.54 L48.52,248.30 L49.08,248.06 L49.65,247.82 L50.21,247.58 L50.77,247.34 L51.34,247.10 L51.90,246.86 L52.47,246.62 L53.03,246.38 L53.59,246.14 L54.16,245.90 L54.72,245.66 L55.29,245.42 L55.85,245.18 L56.41,244.94 L56.98,244.70 L57.54,244.46 L58.11,244.22 L58.67,243.97 L59.24,243.73 L59.80,243.49 L60.36,243.25 L60.93,243.01 L61.49,242.77 L62.06,242.53 L62.62,242.29 L63.18,242.05 L63.75,241.81 L64.31,241.57 L64.88,241.33 L65.44,241.09 L66.01,240.85 L66.57,240.61 L67.13,240.37 L67.70,240.13 L68.26,239.89 L68.83,239.65 L69.39,239.41 L69.95,239.17 L70.52,238.93 L71.08,238.69 L71.65,238.44 L72.21,238.20 L72.78,237.96 L73.34,237.72 L73.90,237.48 L74.47,237.24 L75.03,237.00 L75.60,236.76 L76.16,236.52 L76.72,236.28 L77.29,236.04 L77.85,235.80 L78.42,235.56 L78.98,235.32 L79.55,235.08 L80.11,234.84 L80.67,234.60 L81.24,234.36 L81.80,234.12 L82.37,233.88 L82.93,233.64 L83.49,233.40 L84.06,233.16 L84.62,232.92 L85.19,232.67 L85.75,232.43 L86.31,232.19 L86.88,231.95 L87.44,231.71 L88.01,231.47 L88.57,231.23 L89.14,230.99 L89.70,230.75 L90.26,230.51 L90.83,230.27 L91.39,230.03 L91.96,229.79 L92.52,229.55 L93.08,229.31 L93.65,229.07 L94.21,228.83 L94.78,228.59 L95.34,228.35 L95.91,228.11 L96.47,227.87 L97.03,227.63 L97.60,227.39 L98.16,227.14 L98.73,226.90 L99.29,226.66 L99.85,226.42 L100.42,226.18 L100.98,225.94 L101.55,225.70 L102.11,225.46 L102.68,225.22 L103.24,224.98 L103.80,224.74 L104.37,224.50 L104.93,224.26 L105.50,224.02 L106.06,223.78 L106.62,223.54 L107.19,223.30 L107.75,223.06 L108.32,222.82 L108.88,222.58 L109.44,222.34 L110.01,222.10 L110.57,221.86 L111.14,221.61 L111.70,221.37 L112.27,221.13 L112.83,220.89 L113.39,220.65 L113.96,220.41 L114.52,220.17 L115.09,219.93 L115.65,219.69 L116.21,219.45 L116.78,219.21 L117.34,218.97 L117.91,218.73 L118.47,218.49 L119.04,218.25 L119.60,218.01 L120.16,217.77 L120.73,217.53 L121.29,217.29 L121.86,217.05 L122.42,216.81 L122.98,216.57 L123.55,216.33 L124.11,216.08 L124.68,215.84 L125.24,215.60 L125.81,215.36 L126.37,215.12 L126.93,214.88 L127.50,214.64 L128.06,214.40 L128.63,214.16 L129.19,213.92 L129.75,213.68 L130.32,213.44 L130.88,213.20 L131.45,212.96 L132.01,212.72 L132.58,212.48 L133.14,212.24 L133.70,212.00 L134.27,211.76 L134.83,211.52 L135.40,211.28 L135.96,211.04 L136.52,210.80 L137.09,210.56 L137.65,210.31 L138.22,210.07 L138.78,209.83 L139.34,209.59 L139.91,209.35 L140.47,209.11 L141.04,208.87 L141.60,208.63 L142.17,208.39 L142.73,208.15 L143.29,207.91 L143.86,207.67 L144.42,207.43 L144.99,207.19 L145.55,206.95 L146.11,206.71 L146.68,206.47 L147.24,206.23 L147.81,205.99 L148.37,205.75 L148.94,205.51 L149.50,205.27 L150.06,205.03 L150.63,204.78 L151.19,204.54 L151.76,204.30 L152.32,204.06 L152.88,203.82 L153.45,203.58 L154.01,203.34 L154.58,203.10 L155.14,202.86 L155.71,202.62 L156.27,202.38 L156.83,202.14 L157.40,201.90 L157.96,201.66 L158.53,201.42 L159.09,201.18 L159.65,200.94 L160.22,200.70 L160.78,200.46 L161.35,200.22 L161.91,199.98 L162.47,199.74 L163.04,199.50 L163.60,199.25 L164.17,199.01 L164.73,198.77 L165.30,198.53 L165.86,198.29 L166.42,198.05 L166.99,197.81 L167.55,197.57 L168.12,197.33 L168.68,197.09 L169.24,196.85 L169.81,196.61 L170.37,196.37 L170.94,196.13 L171.50,195.89 L172.07,195.65 L172.63,195.41 L173.19,195.17 L173.76,194.93 L174.32,194.69 L174.89,194.45 L175.45,194.21 L176.01,193.97 L176.58,193.72 L177.14,193.48 L177.71,193.24 L178.27,193.00 L178.84,192.76 L179.40,192.52 L179.96,192.28 L180.53,192.04 L181.09,191.80 L181.66,191.56 L182.22,191.32 L182.78,191.08 L183.35,190.84 L183.91,190.60 L184.48,190.36 L185.04,190.12 L185.61,189.88 L186.17,189.64 L186.73,189.40 L187.30,189.16 L187.86,188.92 L188.43,188.68 L188.99,188.44 L189.55,188.20 L190.12,187.95 L190.68,187.71 L191.25,187.47 L191.81,187.23 L192.37,186.99 L192.94,186.75 L193.50,186.51 L194.07,186.27 L194.63,186.03 L195.20,185.79 L195.76,185.55 L196.32,185.31 L196.89,185.07 L197.45,184.83 L198.02,184.59 L198.58,184.35 L199.14,184.11 L199.71,183.87 L200.27,183.63 L200.84,183.39 L201.40,183.15 L201.97,182.91 L202.53,182.67 L203.09,182.42 L203.66,182.18 L204.22,181.94 L204.79,181.70 L205.35,181.46 L205.91,181.22 L206.48,180.98 L207.04,180.74 L207.61,180.50 L208.17,180.26 L208.74,180.02 L209.30,179.78 L209.86,179.54 L210.43,179.30 L210.99,179.06 L211.56,178.82 L212.12,178.58 L212.68,178.34 L213.25,178.10 L213.81,177.86 L214.38,177.62 L214.94,177.38 L215.51,177.14 L216.07,176.89 L216.63,176.65 L217.20,176.41 L217.76,176.17 L218.33,175.93 L218.89,175.69 L219.45,175.45 L220.02,175.21 L220.58,174.97 L221.15,174.73 L221.71,174.49 L222.27,174.25 L222.84,174.01 L223.40,173.77 L223.97,173.53 L224.53,173.29 L225.10,173.05 L225.66,172.81 L226.22,172.57 L226.79,172.33 L227.35,172.09 L227.92,171.85 L228.48,171.61 L229.04,171.36 L229.61,171.12 L230.17,170.88 L230.74,170.64 L231.30,170.40 L231.87,170.16 L232.43,169.92 L232.99,169.68 L233.56,169.44 L234.12,169.20 L234.69,168.96 L235.25,168.72 L235.81,168.48 L236.38,168.24 L236.94,168.00 L237.51,167.76 L238.07,167.52 L238.64,167.28 L239.20,167.04 L239.76,166.80 L240.33,166.56 L240.89,166.32 L241.46,166.08 L242.02,165.84 L242.58,165.59 L243.15,165.35 L243.71,165.11 L244.28,164.87 L244.84,164.63 L245.40,164.39 L245.97,164.15 L246.53,163.91 L247.10,163.67 L247.66,163.43 L248.23,163.19 L248.79,162.95 L249.35,162.71 L249.92,162.47 L250.48,162.23 L251.05,161.99 L251.61,161.75 L252.17,161.51 L252.74,161.27 L253.30,161.03 L253.87,160.79 L254.43,160.55 L255.00,160.31 L255.56,160.06 L256.12,159.82 L256.69,159.58 L257.25,159.34 L257.82,159.10 L258.38,158.86 L258.94,158.62 L259.51,158.38 L260.07,158.14 L260.64,157.90 L261.20,157.66 L261.77,157.42 L262.33,157.18 L262.89,156.94 L263.46,156.70 L264.02,156.46 L264.59,156.22 L265.15,155.98 L265.71,155.74 L266.28,155.50 L266.84,155.26 L267.41,155.02 L267.97,154.78 L268.54,154.53 L269.10,154.29 L269.66,154.05 L270.23,153.81 L270.79,153.57 L271.36,153.33 L271.92,153.09 L272.48,152.85 L273.05,152.61 L273.61,152.37 L274.18,152.13 L274.74,151.89 L275.30,151.65 L275.87,151.41 L276.43,151.17 L277.00,150.93 L277.56,150.69 L278.13,150.45 L278.69,150.21 L279.25,149.97 L279.82,149.73 L280.38,149.49 L280.95,149.25 L281.51,149.00 L282.07,148.76 L282.64,148.52 L283.20,148.28 L283.77,148.04 L284.33,147.80 L284.90,147.56 L285.46,147.32 L286.02,147.08 L286.59,146.84 L287.15,146.60 L287.72,146.36 L288.28,146.12 L288.84,145.88 L289.41,145.64 L289.97,145.40 L290.54,145.16 L291.10,144.92 L291.67,144.68 L292.23,144.44 L292.79,144.20 L293.36,143.96 L293.92,143.72 L294.49,143.48 L295.05,143.23 L295.61,142.99 L296.18,142.75 L296.74,142.51 L297.31,142.27 L297.87,142.03 L298.43,141.79 L299.00,141.55 L299.56,141.31 L300.13,141.07 L300.69,140.83 L301.26,140.59 L301.82,140.35 L302.38,140.11 L302.95,139.87 L303.51,139.63 L304.08,139.39 L304.64,139.15 L305.20,138.91 L305.77,138.67 L306.33,138.43 L306.90,138.19 L307.46,137.95 L308.03,137.70 L308.59,137.46 L309.15,137.22 L309.72,136.98 L310.28,136.74 L310.85,136.50 L311.41,136.26 L311.97,136.02 L312.54,135.78 L313.10,135.54 L313.67,135.30 L314.23,135.06 L314.80,134.82 L315.36,134.58 L315.92,134.34 L316.49,134.10 L317.05,133.86 L317.62,133.62 L318.18,133.38 L318.74,133.14 L319.31,132.90 L319.87,132.66 L320.44,132.42 L321.00,132.17 L321.57,131.93 L322.13,131.69 L322.69,131.45 L323.26,131.21 L323.82,130.97 L324.39,130.73 L324.95,130.49 L325.51,130.25 L326.08,130.01 L326.64,129.77 L327.21,129.53 L327.77,129.29 L328.33,129.05 L328.90,128.81 L329.46,128.57 L330.03,128.33 L330.59,128.09 L331.16,127.85 L331.72,127.61 L332.28,127.37 L332.85,127.13 L333.41,126.89 L333.98,126.64 L334.54,126.40 L335.10,126.16 L335.67,125.92 L336.23,125.68 L336.80,125.44 L337.36,125.20 L337.93,124.96 L338.49,124.72 L339.05,124.48 L339.62,124.24 L340.18,124.00 L340.75,123.76 L341.31,123.52 L341.87,123.28 L342.44,123.04 L343.00,122.80 L343.57,122.56 L344.13,122.32 L344.70,122.08 L345.26,121.84 L345.82,121.60 L346.39,121.36 L346.95,121.12 L347.52,120.87 L348.08,120.63 L348.64,120.39 L349.21,120.15 L349.77,119.91 L350.34,119.67 L350.90,119.43 L351.46,119.19 L352.03,118.95 L352.59,118.71 L353.16,118.47 L353.72,118.23 L354.29,117.99 L354.85,117.75 L355.41,117.51 L355.98,117.27 L356.54,117.03 L357.11,116.79 L357.67,116.55 L358.23,116.31 L358.80,116.07 L359.36,115.83 L359.93,115.59 L360.49,115.34 L361.06,115.10 L361.62,114.86 L362.18,114.62 L362.75,114.38 L363.31,114.14 L363.88,113.90 L364.44,113.66 L365.00,113.42 L365.57,113.18 L366.13,112.94 L366.70,112.70 L367.26,112.46 L367.83,112.22 L368.39,111.98 L368.95,111.74 L369.52,111.50 L370.08,111.26 L370.65,111.02 L371.21,110.78 L371.77,110.54 L372.34,110.30 L372.90,110.06 L373.47,109.81 L374.03,109.57 L374.60,109.33 L375.16,109.09 L375.72,108.85 L376.29,108.61 L376.85,108.37 L377.42,108.13 L377.98,107.89 L378.54,107.65 L379.11,107.41 L379.67,107.17 L380.24,106.93 L380.80,106.69 L381.36,106.45 L381.93,106.21 L382.49,105.97 L383.06,105.73 L383.62,105.49 L384.19,105.25 L384.75,105.01 L385.31,104.77 L385.88,104.53 L386.44,104.28 L387.01,104.04 L387.57,103.80 L388.13,103.56 L388.70,103.32 L389.26,103.08 L389.83,102.84 L390.39,102.60 L390.96,102.36 L391.52,102.12 L392.08,101.88 L392.65,101.64 L393.21,101.40 L393.78,101.16 L394.34,100.92 L394.90,100.68 L395.47,100.44 L396.03,100.20 L396.60,99.96 L397.16,99.72 L397.73,99.48 L398.29,99.24 L398.85,99.00 L399.42,98.76 L399.98,98.51 L400.55,98.27 L401.11,98.03 L401.67,97.79 L402.24,97.55 L402.80,97.31 L403.37,97.07 L403.93,96.83 L404.49,96.59 L405.06,96.35 L405.62,96.11 L406.19,95.87 L406.75,95.63 L407.32,95.39 L407.88,95.15 L408.44,94.91 L409.01,94.67 L409.57,94.43 L410.14,94.19 L410.70,93.95 L411.26,93.71 L411.83,93.47 L412.39,93.23 L412.96,92.98 L413.52,92.74 L414.09,92.50 L414.65,92.26 L415.21,92.02 L415.78,91.78 L416.34,91.54 L416.91,91.30 L417.47,91.06 L418.03,90.82 L418.60,90.58 L419.16,90.34 L419.73,90.10 L420.29,89.86 L420.86,89.62 L421.42,89.38 L421.98,89.14 L422.55,88.90 L423.11,88.66 L423.68,88.42 L424.24,88.18 L424.80,87.94 L425.37,87.70 L425.93,87.45 L426.50,87.21 L427.06,86.97 L427.63,86.73 L428.19,86.49 L428.75,86.25 L429.32,86.01 L429.88,85.77 L430.45,85.53 L431.01,85.29 L431.57,85.05 L432.14,84.81 L432.70,84.57 L433.27,84.33 L433.83,84.09 L434.39,83.85 L434.96,83.61 L435.52,83.37 L436.09,83.13 L436.65,82.89 L437.22,82.65 L437.78,82.41 L438.34,82.17 L438.91,81.92 L439.47,81.68 L440.04,81.44 L440.60,81.20 L441.16,80.96 L441.73,80.72 L442.29,80.48 L442.86,80.24 L443.42,80.00 L443.99,79.76 L444.55,79.52 L445.11,79.28 L445.68,79.04 L446.24,78.80 L446.81,78.56 L447.37,78.32 L447.93,78.08 L448.50,77.84 L449.06,77.60 L449.63,77.36 L450.19,77.12 L450.76,76.88 L451.32,76.64 L451.88,76.40 L452.45,76.15 L453.01,75.91 L453.58,75.67 L454.14,75.43 L454.70,75.19 L455.27,74.95 L455.83,74.71 L456.40,74.47 L456.96,74.23 L457.53,73.99 L458.09,73.75 L458.65,73.51 L459.22,73.27 L459.78,73.03 L460.35,72.79 L460.91,72.55 L461.47,72.31 L462.04,72.07 L462.60,71.83 L463.17,71.59 L463.73,71.35 L464.29,71.11 L464.86,70.87 L465.42,70.62 L465.99,70.38 L466.55,70.14 L467.12,69.90 L467.68,69.66 L468.24,69.42 L468.81,69.18 L469.37,68.94 L469.94,68.70 L470.50,68.46 L471.06,68.22 L471.63,67.98 L472.19,67.74 L472.76,67.50 L473.32,67.26 L473.89,67.02 L474.45,66.78 L475.01,66.54 L475.58,66.30 L476.14,66.06 L476.71,65.82 L477.27,65.58 L477.83,65.34 L478.40,65.09 L478.96,64.85 L479.53,64.61 L480.09,64.37 L480.66,64.13 L481.22,63.89 L481.78,63.65 L482.35,63.41 L482.91,63.17 L483.48,62.93 L484.04,62.69 L484.60,62.45 L485.17,62.21 L485.73,61.97 L486.30,61.73 L486.86,61.49 L487.42,61.25 L487.99,61.01 L488.55,60.77 L489.12,60.53 L489.68,60.29 L490.25,60.05 L490.81,59.81 L491.37,59.56 L491.94,59.32 L492.50,59.08 L493.07,58.84 L493.63,58.60 L494.19,58.36 L494.76,58.12 L495.32,57.88 L495.89,57.64 L496.45,57.40 L497.02,57.16 L497.58,56.92 L498.14,56.68 L498.71,56.44 L499.27,56.20 L499.84,55.96 L500.40,55.72 L500.96,55.48 L501.53,55.24 L502.09,55.00 L502.66,54.76 L503.22,54.52 L503.79,54.28 L504.35,54.04 L504.91,53.79 L505.48,53.55 L506.04,53.31 L506.61,53.07 L507.17,52.83 L507.73,52.59 L508.30,52.35 L508.86,52.11 L509.43,51.87 L509.99,51.63 L510.56,51.39 L511.12,51.15 L511.68,50.91 L512.25,50.67 L512.81,50.43 L513.38,50.19 L513.94,49.95 L514.50,49.71 L515.07,49.47 L515.63,49.23 L516.20,48.99 L516.76,48.75 L517.32,48.51 L517.89,48.26 L518.45,48.02 L519.02,47.78 L519.58,47.54 L520.15,47.30 L520.71,47.06 L521.27,46.82 L521.84,46.58 L522.40,46.34 L522.97,46.10 L523.53,45.86 L524.09,45.62 L524.66,45.38 L525.22,45.14 L525.79,44.90 L526.35,44.66 L526.92,44.42 L527.48,44.18 L528.04,43.94 L528.61,43.70 L529.17,43.46 L529.74,43.22 L530.30,42.98 L530.86,42.73 L531.43,42.49 L531.99,42.25 L532.56,42.01 L533.12,41.77 L533.69,41.53 L534.25,41.29 L534.81,41.05 L535.38,40.81 L535.94,40.57 L536.51,40.33 L537.07,40.09 L537.63,39.85 L538.20,39.61 L538.76,39.37 L539.33,39.13 L539.89,38.89 L540.45,38.65 L541.02,38.41 L541.58,38.17 L542.15,37.93 L542.71,37.69 L543.28,37.45 L543.84,37.20 L544.40,36.96 L544.97,36.72 L545.53,36.48 L546.10,36.24 L546.66,36.00 L547.22,35.76 L547.79,35.52 L548.35,35.28 L548.92,35.04 L549.48,34.80 L550.05,34.56 L550.61,34.32 L551.17,34.08 L551.74,33.84 L552.30,33.60 L552.87,33.36 L553.43,33.12 L553.99,32.88 L554.56,32.64 L555.12,32.40 L555.69,32.16 L556.25,31.92 L556.82,31.68 L557.38,31.43 L557.94,31.19 L558.51,30.95 L559.07,30.71 L559.64,30.47 L560.20,30.23 L560.76,29.99 L561.33,29.75 L561.89,29.51 L562.46,29.27 L563.02,29.03 L563.59,28.79 L564.15,28.55 L564.71,28.31 L565.28,28.07 L565.84,27.83 L566.41,27.59 L566.97,27.35 L567.53,27.11 L568.10,26.87 L568.66,26.63 L569.23,26.39 L569.79,26.15 L570.35,25.90 L570.92,25.66 L571.48,25.42 L572.05,25.18 L572.61,24.94 L573.18,24.70 L573.74,24.46 L574.30,24.22 L574.87,23.98 L575.43,23.74 L576.00,23.50 L576.56,23.26 L577.12,23.02 L577.69,22.78 L578.25,22.54 L578.82,22.30 L579.38,22.06 L579.95,21.82 L580.51,21.58 L581.07,21.34 L581.64,21.10 L582.20,20.86 L582.77,20.62 L583.33,20.37 L583.89,20.13 L584.46,19.89 L585.02,19.65 L585.59,19.41 L586.15,19.17 L586.72,18.93 L587.28,18.69 L587.84,18.45 L588.41,18.21 L588.97,17.97 L589.54,17.73 L590.10,17.49 L590.66,17.25 L591.23,17.01 L591.79,16.77 L592.36,16.53 L592.92,16.29 L593.48,16.05 L594.05,15.81 L594.61,15.57 L595.18,15.33 L595.74,15.09 L596.31,14.84 L596.87,14.60 L597.43,14.36 L598.00,14.12 L598.56,13.88 L599.13,13.64 L599.69,13.40 L600.25,13.16 L600.82,12.92 L601.38,12.68 L601.95,12.44 L602.51,12.20 L603.08,11.96 L603.64,11.72 L604.20,11.48 L604.77,11.24 L605.33,11.00 L605.90,10.76 L606.46,10.52 L607.02,10.28 L607.59,10.04 L608.15,9.80 L608.72,9.56 L609.28,9.32 L609.85,9.07 L610.41,8.83 L610.97,8.59 L611.54,8.35 L612.10,8.11 L612.67,7.87 L613.23,7.63 L613.79,7.39 L614.36,7.15 L614.92,6.91 L615.49,6.67 L616.05,6.43 L616.62,6.19 L617.18,5.95 L617.74,5.71 L618.31,5.47 L618.87,5.23 L619.44,4.99 L620.00,4.75" style="stroke-width: 2px; stroke: rgb(157, 40, 192); stroke-opacity: 0.8;"/></g></g><g class="test-xtl" style="font-family: &quot;Open Sans&quot;, verdana, arial, sans-serif;"><text text-anchor="middle" font-size="11" dominant-baseline="hanging" stroke="none" fill="rgb(50,50,50)" fill-opacity="1" x="86.86499999999998" y="137">-200</text><text text-anchor="middle" font-size="11" dominant-baseline="hanging" stroke="none" fill="rgb(50,50,50)" fill-opacity="1" x="196.865" y="137">-100</text><text text-anchor="middle" font-size="11" dominant-baseline="hanging" stroke="none" fill="rgb(50,50,50)" fill-opacity="1" x="419.99999999999994" y="137">100</text><text text-anchor="middle" font-size="11" dominant-baseline="hanging" stroke="none" fill="rgb(50,50,50)" fill-opacity="1" x="530" y="137">200</text><text text-anchor="middle" font-size="11" dominant-baseline="hanging" stroke="none" fill="rgb(50,50,50)" fill-opacity="1" x="302" y="135">0</text></g><g class="test-ytl" style="font-family: &quot;Open Sans&quot;, verdana, arial, sans-serif;"><text text-anchor="end" dominant-baseline="middle" font-size="11" stroke="none" fill="rgb(50,50,50)" fill-opacity="1" x="302" y="210">-100</text><text text-anchor="end" dominant-baseline="middle" font-size="11" stroke="none" fill="rgb(50,50,50)" fill-opacity="1" x="302" y="50">100</text></g><rect class="real" x="1" y="1" width="618" height="268" style="fill: transparent; stroke: none;"/></g></g></g><g/></g><g/><g/><g/></svg>
        <svg xmlns="http://www.w3.org/2000/svg" xmlns:xlink="http://www.w3.org/1999/xlink" width="700" height="310" style="width:700px;height:310px;font-family:Asana-Math, Asana;background:transparent;"></svg>
</svg>
