<svg version="1.1" xmlns="http://www.w3.org/2000/svg" xmlns:xlink="http://www.w3.org/1999/xlink" width="800" height="800"><defs/><g transform="scale(2,2)"><g id="background-11b640d0"><rect fill="white" stroke="none" x="0" y="0" width="400" height="400" class="dcg-svg-background"/></g><g id="background-images-11b640d0"/><g id="graphpaper-11b640d0"><g id="axis-11b640d0"><g id="yaxis-11b640d0"><title>Y axis</title><g><path fill="none" stroke="rgb(0,0,0)" class="dcg-svg-axis-line" paint-order="fill stroke markers" d=" M 200 0 L 200 400" stroke-opacity="0.9" stroke-miterlimit="10" stroke-width="1.5" stroke-dasharray=""/></g></g><g id="xaxis-11b640d0"><title>X axis</title><g><path fill="none" stroke="rgb(0,0,0)" class="dcg-svg-axis-line" paint-order="fill stroke markers" d=" M 0 200 L 400 200" stroke-opacity="0.9" stroke-miterlimit="10" stroke-width="1.5" stroke-dasharray=""/></g></g><g><g class="dcg-svg-axis-value"><text fill="none" stroke="#ffffff" font-family="Arial" font-size="14px" font-style="normal" font-weight="normal" text-decoration="normal" x="191.1083333492279" y="215.808" text-anchor="middle" stroke-miterlimit="2" stroke-width="3" stroke-dasharray="">0</text><text fill="#000000" stroke="none" font-family="Arial" font-size="14px" font-style="normal" font-weight="normal" text-decoration="normal" x="191.1083333492279" y="215.808" text-anchor="middle">0</text></g><g><path fill="none" stroke="rgb(0,0,0)" class="dcg-svg-tickmark" paint-order="fill stroke markers" d=" M 40 197 L 40 203 M 120 197 L 120 203 M 280 197 L 280 203 M 360 197 L 360 203 M 197 360 L 203 360 M 197 280 L 203 280 M 197 120 L 203 120 M 197 40 L 203 40" stroke-opacity="0.9" stroke-miterlimit="2" stroke-width="1.5" stroke-dasharray=""/></g><g class="dcg-svg-axis-value"><text fill="none" stroke="#ffffff" font-family="Arial" font-size="14px" font-style="normal" font-weight="normal" text-decoration="normal" x="37.666666746139526" y="215.808" text-anchor="middle" stroke-miterlimit="2" stroke-width="3" stroke-dasharray="">-4</text><text fill="#000000" stroke="none" font-family="Arial" font-size="14px" font-style="normal" font-weight="normal" text-decoration="normal" x="37.666666746139526" y="215.808" text-anchor="middle">-4</text></g><g class="dcg-svg-axis-value"><text fill="none" stroke="#ffffff" font-family="Arial" font-size="14px" font-style="normal" font-weight="normal" text-decoration="normal" x="117.66666674613953" y="215.808" text-anchor="middle" stroke-miterlimit="2" stroke-width="3" stroke-dasharray="">-2</text><text fill="#000000" stroke="none" font-family="Arial" font-size="14px" font-style="normal" font-weight="normal" text-decoration="normal" x="117.66666674613953" y="215.808" text-anchor="middle">-2</text></g><g class="dcg-svg-axis-value"><text fill="none" stroke="#ffffff" font-family="Arial" font-size="14px" font-style="normal" font-weight="normal" text-decoration="normal" x="280" y="215.808" text-anchor="middle" stroke-miterlimit="2" stroke-width="3" stroke-dasharray="">2</text><text fill="#000000" stroke="none" font-family="Arial" font-size="14px" font-style="normal" font-weight="normal" text-decoration="normal" x="280" y="215.808" text-anchor="middle">2</text></g><g class="dcg-svg-axis-value"><text fill="none" stroke="#ffffff" font-family="Arial" font-size="14px" font-style="normal" font-weight="normal" text-decoration="normal" x="360" y="215.808" text-anchor="middle" stroke-miterlimit="2" stroke-width="3" stroke-dasharray="">4</text><text fill="#000000" stroke="none" font-family="Arial" font-size="14px" font-style="normal" font-weight="normal" text-decoration="normal" x="360" y="215.808" text-anchor="middle">4</text></g><g class="dcg-svg-axis-value"><text fill="none" stroke="#ffffff" font-family="Arial" font-size="14px" font-style="normal" font-weight="normal" text-decoration="normal" x="188.77500009536743" y="363.808" text-anchor="middle" stroke-miterlimit="2" stroke-width="3" stroke-dasharray="">-4</text><text fill="#000000" stroke="none" font-family="Arial" font-size="14px" font-style="normal" font-weight="normal" text-decoration="normal" x="188.77500009536743" y="363.808" text-anchor="middle">-4</text></g><g class="dcg-svg-axis-value"><text fill="none" stroke="#ffffff" font-family="Arial" font-size="14px" font-style="normal" font-weight="normal" text-decoration="normal" x="188.77500009536743" y="283.808" text-anchor="middle" stroke-miterlimit="2" stroke-width="3" stroke-dasharray="">-2</text><text fill="#000000" stroke="none" font-family="Arial" font-size="14px" font-style="normal" font-weight="normal" text-decoration="normal" x="188.77500009536743" y="283.808" text-anchor="middle">-2</text></g><g class="dcg-svg-axis-value"><text fill="none" stroke="#ffffff" font-family="Arial" font-size="14px" font-style="normal" font-weight="normal" text-decoration="normal" x="191.1083333492279" y="123.808" text-anchor="middle" stroke-miterlimit="2" stroke-width="3" stroke-dasharray="">2</text><text fill="#000000" stroke="none" font-family="Arial" font-size="14px" font-style="normal" font-weight="normal" text-decoration="normal" x="191.1083333492279" y="123.808" text-anchor="middle">2</text></g><g class="dcg-svg-axis-value"><text fill="none" stroke="#ffffff" font-family="Arial" font-size="14px" font-style="normal" font-weight="normal" text-decoration="normal" x="191.1083333492279" y="43.808" text-anchor="middle" stroke-miterlimit="2" stroke-width="3" stroke-dasharray="">4</text><text fill="#000000" stroke="none" font-family="Arial" font-size="14px" font-style="normal" font-weight="normal" text-decoration="normal" x="191.1083333492279" y="43.808" text-anchor="middle">4</text></g></g></g></g><g id="expressions-11b640d0"><g id="sketch-11b640d0"><title>Expression 1</title><path fill="#c74440" stroke="none" paint-order="stroke fill markers" d="" fill-opacity="0.4"/><g><path fill="none" stroke="#c74440" class="dcg-svg-curve" paint-order="fill stroke markers" d=" M 0 160 L 0 160 L 400 160" stroke-linecap="round" stroke-linejoin="round" stroke-miterlimit="10" stroke-width="2.5" stroke-opacity="0.1" stroke-dasharray=""/></g></g><g id="sketch-11b640d0"><title>Expression 2</title><path fill="#c74440" stroke="none" paint-order="stroke fill markers" d="" fill-opacity="0.4"/><g><path fill="none" stroke="#c74440" class="dcg-svg-curve" paint-order="fill stroke markers" d=" M 0 360 L 0 360 L 365.5 -5.5" stroke-linecap="round" stroke-linejoin="round" stroke-miterlimit="10" stroke-width="2.5" stroke-opacity="0.2" stroke-dasharray=""/></g></g><g id="sketch-11b640d0"><title>Expression 3</title><path fill="#c74440" stroke="none" paint-order="stroke fill markers" d="" fill-opacity="0.4"/><g><path fill="none" stroke="#c74440" class="dcg-svg-curve" paint-order="fill stroke markers" d=" M 38.20162428678976 -5.5 L 38.20162428678976 -5.5 L 39.453125 -1.6443634033203125 L 44.7265625 13.900432586669922 L 50 28.75 L 55.17578125 42.648539543151855 L 60.25390625 55.63395977020264 L 65.234375 67.74345397949219 L 70.21484375 79.23282146453857 L 75.09765625 89.89490032196045 L 79.8828125 99.76545333862305 L 84.66796875 109.0635633468628 L 89.35546875 117.61687755584717 L 94.04296875 125.62087535858154 L 98.6328125 132.92585372924805 L 103.22265625 139.7041654586792 L 107.8125 145.955810546875 L 112.3046875 151.5644645690918 L 116.6015625 156.45719528198242 L 120.80078125 160.7927656173706 L 124.8046875 164.5161247253418 L 128.7109375 167.76243209838867 L 132.421875 170.4930877685547 L 136.03515625 172.82107830047607 L 139.55078125 174.7728681564331 L 142.96875 176.37420654296875 L 146.38671875 177.68348217010498 L 149.70703125 178.67568492889404 L 153.02734375 179.3922758102417 L 156.25 179.82421875 L 159.47265625 179.9965238571167 L 162.6953125 179.9091911315918 L 165.91796875 179.5622205734253 L 169.140625 178.9556121826172 L 172.4609375 178.05906295776367 L 175.78125 176.88690185546875 L 179.1015625 175.43912887573242 L 182.51953125 173.66088390350342 L 186.03515625 171.52713298797607 L 189.6484375 169.01212692260742 L 193.359375 166.0894012451172 L 197.16796875 162.7317762374878 L 201.07421875 158.91135692596436 L 205.17578125 154.48935985565186 L 209.375 149.5263671875 L 213.76953125 143.86046886444092 L 218.359375 137.4272918701172 L 222.94921875 130.4674482345581 L 227.5390625 122.98093795776367 L 232.12890625 114.96776103973389 L 236.81640625 106.24049663543701 L 241.50390625 96.96391582489014 L 246.2890625 86.92747116088867 L 251.07421875 76.31858348846436 L 255.95703125 64.90310192108154 L 260.9375 52.645263671875 L 265.91796875 39.76729869842529 L 270.99609375 25.998339653015137 L 276.171875 11.301193237304688 L 281.4453125 -4.362049102783203 L 281.81215075554854 -5.5" stroke-linecap="round" stroke-linejoin="round" stroke-miterlimit="10" stroke-width="2.5" stroke-opacity="0.3" stroke-dasharray=""/></g></g><g id="sketch-11b640d0"><title>Expression 4</title><path fill="#c74440" stroke="none" paint-order="stroke fill markers" d="" fill-opacity="0.4"/><g><path fill="none" stroke="#c74440" class="dcg-svg-curve" paint-order="fill stroke markers" d=" M 44.39647133703747 405.5 L 44.39647133703747 405.5 L 47.0703125 393.1528869457543 L 50.78125 376.9887046019236 L 54.4921875 361.7645582867166 L 58.10546875 347.81388146259513 L 61.71875 334.69465136528015 L 65.33203125 322.37738406828913 L 68.9453125 310.83259564513963 L 72.55859375 300.03080216934904 L 76.07421875 290.20604950143024 L 79.58984375 281.0296035162173 L 83.203125 272.24526440103847 L 86.81640625 264.0875782530444 L 90.4296875 256.52706114575267 L 94.04296875 249.5342291526807 L 97.75390625 242.91234193602577 L 101.46484375 236.8262012900474 L 105.2734375 231.10347614313164 L 109.27734375 225.6216025080842 L 113.37890625 220.5326486712632 L 117.3828125 216.038009095937 L 121.484375 211.87615975737572 L 125.5859375 208.11927368864417 L 129.78515625 204.6474471090672 L 134.1796875 201.36995899801454 L 138.8671875 198.2161796403428 L 144.04296875 195.06842068163678 L 150 191.77083333333334 L 158.203125 187.56570850809416 L 171.484375 180.7666995624701 L 177.44140625 177.39328416297212 L 182.51953125 174.2172850163964 L 187.109375 171.03664860129356 L 191.50390625 167.65768183628097 L 195.703125 164.07434975107512 L 199.70703125 160.29189848573878 L 203.7109375 156.11160100127262 L 207.6171875 151.61150557920337 L 211.5234375 146.6572972697516 L 215.52734375 141.06896601384506 L 219.3359375 135.23753037676215 L 223.046875 129.03848374883336 L 226.7578125 122.29679829751451 L 230.37109375 115.18069807828093 L 233.984375 107.49037846922874 L 237.5 99.4287109375 L 241.015625 90.76837435364723 L 244.53125 81.48221135139465 L 248.046875 71.54306456446648 L 251.5625 60.923776626586914 L 255.078125 49.59719017148018 L 258.59375 37.53614783287048 L 262.109375 24.71349224448204 L 265.72265625 10.712449379110069 L 269.3359375 -4.151277237882198 L 269.64523855118347 -5.5" stroke-linecap="round" stroke-linejoin="round" stroke-miterlimit="10" stroke-width="2.5" stroke-opacity="0.4" stroke-dasharray=""/></g></g><g id="sketch-11b640d0"><title>Expression 5</title><path fill="#c74440" stroke="none" paint-order="stroke fill markers" d="" fill-opacity="0.4"/><g><path fill="none" stroke="#c74440" class="dcg-svg-curve" paint-order="fill stroke markers" d=" M 39.04039612796704 -5.5 L 39.04039612796704 -5.5 L 39.0625 -5.36768963560462 L 42.1875 12.100017263243643 L 45.21484375 27.894954930399365 L 48.2421875 42.63184679747155 L 51.26953125 56.35979787735164 L 54.296875 69.12660078065525 L 57.32421875 80.97873571572251 L 60.3515625 91.9613704886175 L 63.28125 101.80316391672626 L 66.2109375 110.91030384200316 L 69.140625 119.32021568720906 L 72.0703125 127.06917379587289 L 75 134.19230143229166 L 78.02734375 140.9314730075144 L 81.0546875 147.07485718189218 L 84.08203125 152.6573342210697 L 87.20703125 157.86712848320036 L 90.33203125 162.55046065551738 L 93.5546875 166.86468218339087 L 96.875 170.7994094491005 L 100.09765625 174.1579281751561 L 103.3203125 177.09534503027044 L 106.4453125 179.57042484430076 L 109.5703125 181.7044911575537 L 112.79296875 183.5743062117701 L 116.015625 185.13334819074467 L 119.3359375 186.43976963192927 L 122.65625 187.46580737293698 L 126.07421875 188.25266363495444 L 129.6875 188.81170669570565 L 133.3984375 189.11840311246578 L 137.3046875 189.17314730295857 L 141.30859375 188.96744943041227 L 145.5078125 188.48936493758174 L 149.90234375 187.72185030135148 L 154.39453125 186.6714638125388 L 158.984375 185.33209413559234 L 163.671875 183.6916566562286 L 168.359375 181.77361787798873 L 173.046875 179.56829670270963 L 177.63671875 177.1140159896609 L 182.12890625 174.40702842414936 L 186.5234375 171.4398227186257 L 190.72265625 168.27983338810395 L 194.82421875 164.85489811521188 L 198.92578125 161.05992268303748 L 202.9296875 156.96035683302853 L 206.8359375 152.54523992412183 L 210.7421875 147.67758688848062 L 214.6484375 142.3119593708043 L 218.45703125 136.55418064744168 L 222.0703125 130.56664887885896 L 225.5859375 124.20730540693663 L 229.00390625 117.47849639615339 L 232.32421875 110.38619756427875 L 235.64453125 102.70541311036737 L 238.8671875 94.64769977656488 L 242.08984375 85.95535334903758 L 245.3125 76.58628741279244 L 248.4375 66.81349445755285 L 251.5625 56.3217974640429 L 254.6875 45.06828108802438 L 257.8125 33.00853986913961 L 260.9375 20.096678230911493 L 264.0625 6.285310480743647 L 266.55773847447944 -5.5" stroke-linecap="round" stroke-linejoin="round" stroke-miterlimit="10" stroke-width="2.5" stroke-opacity="0.5" stroke-dasharray=""/></g></g><g id="sketch-11b640d0"><title>Expression 6</title><path fill="#c74440" stroke="none" paint-order="stroke fill markers" d="" fill-opacity="0.4"/><g><path fill="none" stroke="#c74440" class="dcg-svg-curve" paint-order="fill stroke markers" d=" M 29.019288315477663 405.5 L 29.019288315477663 405.5 L 31.8359375 387.1670297021818 L 34.5703125 370.65512972512175 L 37.3046875 355.3347812237472 L 40.0390625 341.13812888538297 L 42.7734375 327.99999669094063 L 45.5078125 315.85782820445996 L 48.2421875 304.6516268626501 L 50.9765625 294.32389626443097 L 53.7109375 284.8195804604739 L 56.4453125 276.0860042427437 L 59.1796875 268.07281343403906 L 61.9140625 260.7319151775342 L 64.74609375 253.7886445623289 L 67.578125 247.46876621444034 L 70.41015625 241.7261087523159 L 73.33984375 236.34619617625674 L 76.3671875 231.33776446063766 L 79.4921875 226.70472321450404 L 82.71484375 222.4462087240429 L 86.03515625 218.5566946928164 L 89.35546875 215.12085337908772 L 92.67578125 212.08984950590732 L 96.09375 209.3446232001664 L 99.609375 206.86975695606867 L 103.3203125 204.59042444663518 L 107.2265625 202.50651683491165 L 111.42578125 200.56705936951215 L 116.11328125 198.6981179549111 L 121.484375 196.84738481844576 L 128.22265625 194.8191071586989 L 141.2109375 191.26137376324803 L 150.48828125 188.56833173507147 L 157.2265625 186.3424342171125 L 163.0859375 184.13489605594748 L 168.45703125 181.83229700521565 L 173.4375 179.41411166456723 L 178.22265625 176.7945293613259 L 182.8125 173.9718328716602 L 187.20703125 170.94898917721417 L 191.40625 167.733306415192 L 195.5078125 164.24912431427555 L 199.51171875 160.48531310744016 L 203.515625 156.32525233158233 L 207.421875 151.84493712171906 L 211.328125 146.9050395672898 L 215.234375 141.45850802571246 L 218.9453125 135.7679825359316 L 222.55859375 129.69684544242574 L 225.9765625 123.42783692714727 L 229.296875 116.80507155190853 L 232.6171875 109.6125830392635 L 235.83984375 102.04189040034362 L 238.96484375 94.10145059654668 L 242.08984375 85.5253564177136 L 245.21484375 76.26540502436443 L 248.2421875 66.59434111735874 L 251.26953125 56.183958142310104 L 254.296875 44.98191766989697 L 257.32421875 32.93288671228498 L 260.25390625 20.411078523809152 L 263.18359375 6.985541616944175 L 265.72591117850675 -5.5" stroke-linecap="round" stroke-linejoin="round" stroke-miterlimit="10" stroke-width="2.5" stroke-opacity="0.6" stroke-dasharray=""/></g></g><g id="sketch-11b640d0"><title>Expression 7</title><path fill="#c74440" stroke="none" paint-order="stroke fill markers" d="" fill-opacity="0.4"/><g><path fill="none" stroke="#c74440" class="dcg-svg-curve" paint-order="fill stroke markers" d=" M 17.4556440828401 -5.5 L 17.4556440828401 -5.5 L 18.5546875 2.7046287504785482 L 21.19140625 20.85199165922512 L 23.73046875 36.967003316866624 L 26.26953125 51.83207911261903 L 28.80859375 65.52663997949281 L 31.34765625 78.12615240106607 L 33.88671875 89.70226491845317 L 36.42578125 100.32294202065688 L 38.96484375 110.05259541829989 L 41.50390625 118.95221270073911 L 44.04296875 127.07948337656127 L 46.58203125 134.4889222974603 L 49.12109375 141.2319904654958 L 51.7578125 147.58108926292917 L 54.39453125 153.31500837086975 L 57.03125 158.48173061341072 L 59.765625 163.28877570864287 L 62.59765625 167.72539859054385 L 65.52734375 171.78550841331304 L 68.5546875 175.46747870920456 L 71.58203125 178.67764920930716 L 74.609375 181.4626061937962 L 77.63671875 183.8650722337731 L 80.6640625 185.92412199053945 L 83.7890625 187.72713257684612 L 87.01171875 189.28059993966582 L 90.4296875 190.6275547144675 L 93.9453125 191.7287427293184 L 97.65625 192.61777193027683 L 101.66015625 193.303865408757 L 105.95703125 193.7689298993079 L 110.546875 194.00086046989867 L 115.52734375 193.98922892941582 L 120.8984375 193.71454341162328 L 126.66015625 193.15796212572016 L 132.71484375 192.31189070787494 L 138.96484375 191.1748262888305 L 145.21484375 189.77083701993212 L 151.26953125 188.14287190615454 L 157.03125 186.32588948541135 L 162.5 184.33125898241997 L 167.7734375 182.12676762351612 L 172.75390625 179.75816151641908 L 177.5390625 177.18628852190054 L 182.12890625 174.412520395848 L 186.5234375 171.44118848475833 L 190.8203125 168.20251257895538 L 194.921875 164.76900167762062 L 198.92578125 161.05992268767295 L 202.9296875 156.96035612188933 L 206.8359375 152.54518994756245 L 210.7421875 147.67710041563896 L 214.6484375 142.30962985814577 L 218.359375 136.70139705373157 L 221.97265625 130.71738526378363 L 225.48828125 124.35270922888418 L 228.90625 117.60499492112517 L 232.2265625 110.47464997276293 L 235.44921875 102.96512058571659 L 238.57421875 95.08312808134258 L 241.69921875 86.56244170000801 L 244.7265625 77.65080829820948 L 247.75390625 68.04201727477195 L 250.78125 57.682604030693426 L 253.7109375 46.88875132087031 L 256.640625 35.282787299382846 L 259.5703125 22.80546568224986 L 262.5 9.39360411630733 L 265.4296875 -5.020122596611401 L 265.52046467190854 -5.5" stroke-linecap="round" stroke-linejoin="round" stroke-miterlimit="10" stroke-width="2.5" stroke-opacity="0.7" stroke-dasharray=""/></g></g><g id="sketch-11b640d0"><title>Expression 8</title><path fill="#c74440" stroke="none" paint-order="stroke fill markers" d="" fill-opacity="0.4"/><g><path fill="none" stroke="#c74440" class="dcg-svg-curve" paint-order="fill stroke markers" d=" M 4.592202008135556 405.5 L 4.592202008135556 405.5 L 4.8828125 403.08887407538225 L 7.32421875 384.4354037397982 L 9.765625 367.27575558896 L 12.20703125 351.50747726728594 L 14.6484375 337.03387695231834 L 17.08984375 323.76377128240216 L 19.53125 311.6112409250761 L 21.97265625 300.4953936599652 L 24.4140625 290.34013484995626 L 26.85546875 281.07394517443527 L 29.296875 272.62966549837347 L 31.73828125 264.94428875104023 L 34.1796875 257.9587586881282 L 36.71875 251.37679922931608 L 39.2578125 245.43389312047867 L 41.89453125 239.88078709204984 L 44.53125 234.90207065440075 L 47.265625 230.28978618858724 L 50.09765625 226.04726274333885 L 53.125 222.05200366078301 L 56.15234375 218.554333215848 L 59.1796875 215.4980659940734 L 62.3046875 212.75207836532127 L 65.4296875 210.37109848587644 L 68.75 208.18990133899206 L 72.16796875 206.26860347889874 L 75.78125 204.5422250749309 L 79.6875 202.9712219476233 L 83.984375 201.53305370578215 L 88.76953125 200.2137329745834 L 94.3359375 198.95851006979677 L 101.26953125 197.67792774233172 L 111.81640625 196.03097197932297 L 127.83203125 193.5082598955952 L 136.328125 191.89228361761892 L 143.5546875 190.25878346056186 L 150.09765625 188.5168997432967 L 156.15234375 186.6361906819179 L 161.81640625 184.601817444251 L 167.08984375 182.43137409501918 L 172.0703125 180.10169297657959 L 176.85546875 177.57299863777254 L 181.4453125 174.84611931499057 L 185.83984375 171.9251112089225 L 190.13671875 168.74130984631884 L 194.3359375 165.28131927184032 L 198.4375 161.532375935783 L 202.44140625 157.48254870463995 L 206.34765625 153.12095094709917 L 210.25390625 148.31192434216746 L 214.16015625 143.00957017703115 L 217.96875 137.31650492783635 L 221.58203125 131.3905606628349 L 225.09765625 125.087518516688 L 228.515625 118.40490099905307 L 231.8359375 111.34291796679543 L 235.05859375 103.90470846341191 L 238.18359375 96.09656653850301 L 241.30859375 87.65422260086801 L 244.3359375 78.82246982090916 L 247.36328125 69.29697224954435 L 250.390625 59.023486462932624 L 253.3203125 48.314249696023126 L 256.25 36.792950678489944 L 259.1796875 24.398538428633174 L 262.109375 11.065518043114338 L 264.94140625 -2.7812467305114126 L 265.4596404692088 -5.5" stroke-linecap="round" stroke-linejoin="round" stroke-miterlimit="10" stroke-width="2.5" stroke-opacity="0.8" stroke-dasharray=""/></g></g><g id="sketch-11b640d0"><title>Expression 9</title><path fill="#c74440" stroke="none" paint-order="stroke fill markers" d="" fill-opacity="0.4"/><g><path fill="none" stroke="#c74440" class="dcg-svg-curve" paint-order="fill stroke markers" d=" M 0 57.79265873015868 L 0 57.79265873015868 L 2.34375 71.53974915205708 L 4.6875 84.09588843984807 L 7.03125 95.55103919257746 L 9.375 105.98935303057331 L 11.71875 115.48947816466142 L 14.0625 124.12485431813974 L 16.40625 131.9639953614471 L 18.75 139.07076001390155 L 21.19140625 145.75891602270426 L 23.6328125 151.77931103092277 L 26.07421875 157.18978028265445 L 28.61328125 162.22714421385103 L 31.25 166.88075639820565 L 33.984375 171.14551631511927 L 36.81640625 175.0215520575379 L 39.74609375 178.5138198930236 L 42.67578125 181.5382382465561 L 45.60546875 184.148056923914 L 48.53515625 186.39118902524822 L 51.5625 188.36951582324858 L 54.6875 190.09405321676246 L 58.0078125 191.6186029928582 L 61.5234375 192.93472184887995 L 65.234375 194.04014856514243 L 69.23828125 194.9573448153377 L 73.6328125 195.69069395937126 L 78.515625 196.23197764169777 L 83.88671875 196.56116221885492 L 89.94140625 196.6688658625035 L 96.875 196.5241652399204 L 104.58984375 196.09573595083094 L 112.79296875 195.37873467536372 L 121.09375 194.39498591565803 L 129.1015625 193.18729525890006 L 136.62109375 191.79178524817792 L 143.5546875 190.2431849693884 L 150 188.53907895466637 L 155.95703125 186.69921604417826 L 161.62109375 184.67613652312338 L 166.89453125 182.51674097816172 L 171.875 180.19855979875845 L 176.66015625 177.68222609849983 L 181.25 174.96863950079106 L 185.64453125 172.0618612474022 L 189.94140625 168.89356812890452 L 194.140625 165.450430873806 L 198.2421875 161.71974830705545 L 202.24609375 157.68964742371773 L 206.15234375 153.34929462005482 L 210.05859375 148.56369233737684 L 213.96484375 143.28716524107813 L 217.7734375 137.62182900556513 L 221.38671875 131.72474400818584 L 224.90234375 125.45238671653775 L 228.3203125 118.80227728955666 L 231.640625 111.77459900207806 L 234.86328125 104.37243463415751 L 237.98828125 96.60198694960384 L 241.11328125 88.2001655337807 L 244.140625 79.4104549807106 L 247.16796875 69.9297818786886 L 250.1953125 59.70387798114638 L 253.125 49.04320807072895 L 256.0546875 37.572746808777566 L 258.984375 25.231104883145747 L 261.9140625 11.952282132656535 L 264.74609375 -1.8414032464325203 L 265.44596678282693 -5.5" stroke-linecap="round" stroke-linejoin="round" stroke-miterlimit="10" stroke-width="2.5" stroke-opacity="0.9" stroke-dasharray=""/></g></g><g id="sketch-11b640d0"><title>Expression 10</title><path fill="#000000" stroke="none" paint-order="stroke fill markers" d="" fill-opacity="0.4"/><g><path fill="none" stroke="#000000" class="dcg-svg-curve" paint-order="fill stroke markers" d=" M -1.953125 199.74332604853808 L -1.953125 199.74332604853808 L 32.51953125 199.39233544294444 L 56.15234375 198.90288056687078 L 74.21875 198.27651534401235 L 88.8671875 197.51428799008346 L 101.17187499999999 196.6189837529435 L 111.81640625000001 195.58816981914424 L 121.19140625 194.42292408002476 L 129.58984375 193.11995255591586 L 137.20703125 191.67672975945524 L 144.140625 190.10138271589366 L 150.5859375 188.3706986502946 L 156.54296875 186.50318579387752 L 162.109375 184.48800137787526 L 167.3828125 182.30203313471713 L 172.36328125 179.95536603300152 L 177.1484375 177.40812357105432 L 181.73828125 174.6612084238515 L 186.1328125 171.71872947590094 L 190.42968750000003 168.5115238744103 L 194.53125 165.11137991005816 L 198.6328125 161.34408642306127 L 202.63671875000003 157.27443628851523 L 206.54296875 152.89148958748953 L 210.44921875 148.05892396712653 L 214.35546875 142.73061585202927 L 218.06640625 137.16328035237285 L 221.6796875 131.22284491513878 L 225.1953125 124.90437761333557 L 228.61328125 118.20537884756806 L 231.93359374999997 111.1260300783409 L 235.15625000000003 103.66943094383267 L 238.28125 95.8418201120103 L 241.40625 87.3781547864296 L 244.43359375 78.5236859283375 L 247.4609375 68.97306776981213 L 250.48828125 58.67156819125833 L 253.41796875 47.93186562717776 L 256.34765625 36.37604128428171 L 259.27734375 23.942077173349674 L 262.20703125 10.563242490128232 L 265.0390625 -3.335234125537852 L 265.92461090107616 -8" stroke-linecap="round" stroke-linejoin="round" stroke-miterlimit="10" stroke-width="5" stroke-dasharray=""/></g></g></g><g id="labels-11b640d0"/></g></svg>