<svg version="1.1" xmlns="http://www.w3.org/2000/svg" xmlns:xlink="http://www.w3.org/1999/xlink" width="800" height="800"><defs/><g transform="scale(2,2)"><g id="background-e53a021f"><rect fill="white" stroke="none" x="0" y="0" width="400" height="400" class="dcg-svg-background"/></g><g id="background-images-e53a021f"/><g id="graphpaper-e53a021f"><g id="axis-e53a021f"><g id="yaxis-e53a021f"><title>Y axis</title><g><path fill="none" stroke="rgb(0,0,0)" class="dcg-svg-axis-line" paint-order="fill stroke markers" d=" M 200 0 L 200 400" stroke-opacity="0.9" stroke-miterlimit="10" stroke-width="1.5" stroke-dasharray=""/></g></g><g id="xaxis-e53a021f"><title>X axis</title><g><path fill="none" stroke="rgb(0,0,0)" class="dcg-svg-axis-line" paint-order="fill stroke markers" d=" M 0 200 L 400 200" stroke-opacity="0.9" stroke-miterlimit="10" stroke-width="1.5" stroke-dasharray=""/></g></g><g><g class="dcg-svg-axis-value"><text fill="none" stroke="#ffffff" font-family="Arial" font-size="14px" font-style="normal" font-weight="normal" text-decoration="normal" x="191.1083333492279" y="215.808" text-anchor="middle" stroke-miterlimit="2" stroke-width="3" stroke-dasharray="">0</text><text fill="#000000" stroke="none" font-family="Arial" font-size="14px" font-style="normal" font-weight="normal" text-decoration="normal" x="191.1083333492279" y="215.808" text-anchor="middle">0</text></g><g><path fill="none" stroke="rgb(0,0,0)" class="dcg-svg-tickmark" paint-order="fill stroke markers" d=" M 0 197 L 0 203 M 40 197 L 40 203 M 80 197 L 80 203 M 120 197 L 120 203 M 160 197 L 160 203 M 240 197 L 240 203 M 280 197 L 280 203 M 320 197 L 320 203 M 360 197 L 360 203 M 400 197 L 400 203 M 197 400 L 203 400 M 197 360 L 203 360 M 197 320 L 203 320 M 197 280 L 203 280 M 197 240 L 203 240 M 197 160 L 203 160 M 197 120 L 203 120 M 197 80 L 203 80 M 197 40 L 203 40 M 197 0 L 203 0" stroke-opacity="0.9" stroke-miterlimit="2" stroke-width="1.5" stroke-dasharray=""/></g><g class="dcg-svg-axis-value dcg-svg-offcenter-axis-value"><text fill="none" stroke="#ffffff" font-family="Arial" font-size="14px" font-style="normal" font-weight="normal" text-decoration="normal" x="9.224999904632568" y="215.808" text-anchor="middle" stroke-miterlimit="2" stroke-width="3" stroke-dasharray="">-5</text><text fill="#000000" stroke="none" font-family="Arial" font-size="14px" font-style="normal" font-weight="normal" text-decoration="normal" x="9.224999904632568" y="215.808" text-anchor="middle">-5</text></g><g class="dcg-svg-axis-value"><text fill="none" stroke="#ffffff" font-family="Arial" font-size="14px" font-style="normal" font-weight="normal" text-decoration="normal" x="37.666666746139526" y="215.808" text-anchor="middle" stroke-miterlimit="2" stroke-width="3" stroke-dasharray="">-4</text><text fill="#000000" stroke="none" font-family="Arial" font-size="14px" font-style="normal" font-weight="normal" text-decoration="normal" x="37.666666746139526" y="215.808" text-anchor="middle">-4</text></g><g class="dcg-svg-axis-value"><text fill="none" stroke="#ffffff" font-family="Arial" font-size="14px" font-style="normal" font-weight="normal" text-decoration="normal" x="77.66666674613953" y="215.808" text-anchor="middle" stroke-miterlimit="2" stroke-width="3" stroke-dasharray="">-3</text><text fill="#000000" stroke="none" font-family="Arial" font-size="14px" font-style="normal" font-weight="normal" text-decoration="normal" x="77.66666674613953" y="215.808" text-anchor="middle">-3</text></g><g class="dcg-svg-axis-value"><text fill="none" stroke="#ffffff" font-family="Arial" font-size="14px" font-style="normal" font-weight="normal" text-decoration="normal" x="117.66666674613953" y="215.808" text-anchor="middle" stroke-miterlimit="2" stroke-width="3" stroke-dasharray="">-2</text><text fill="#000000" stroke="none" font-family="Arial" font-size="14px" font-style="normal" font-weight="normal" text-decoration="normal" x="117.66666674613953" y="215.808" text-anchor="middle">-2</text></g><g class="dcg-svg-axis-value"><text fill="none" stroke="#ffffff" font-family="Arial" font-size="14px" font-style="normal" font-weight="normal" text-decoration="normal" x="157.66666674613953" y="215.808" text-anchor="middle" stroke-miterlimit="2" stroke-width="3" stroke-dasharray="">-1</text><text fill="#000000" stroke="none" font-family="Arial" font-size="14px" font-style="normal" font-weight="normal" text-decoration="normal" x="157.66666674613953" y="215.808" text-anchor="middle">-1</text></g><g class="dcg-svg-axis-value"><text fill="none" stroke="#ffffff" font-family="Arial" font-size="14px" font-style="normal" font-weight="normal" text-decoration="normal" x="240" y="215.808" text-anchor="middle" stroke-miterlimit="2" stroke-width="3" stroke-dasharray="">1</text><text fill="#000000" stroke="none" font-family="Arial" font-size="14px" font-style="normal" font-weight="normal" text-decoration="normal" x="240" y="215.808" text-anchor="middle">1</text></g><g class="dcg-svg-axis-value"><text fill="none" stroke="#ffffff" font-family="Arial" font-size="14px" font-style="normal" font-weight="normal" text-decoration="normal" x="280" y="215.808" text-anchor="middle" stroke-miterlimit="2" stroke-width="3" stroke-dasharray="">2</text><text fill="#000000" stroke="none" font-family="Arial" font-size="14px" font-style="normal" font-weight="normal" text-decoration="normal" x="280" y="215.808" text-anchor="middle">2</text></g><g class="dcg-svg-axis-value"><text fill="none" stroke="#ffffff" font-family="Arial" font-size="14px" font-style="normal" font-weight="normal" text-decoration="normal" x="320" y="215.808" text-anchor="middle" stroke-miterlimit="2" stroke-width="3" stroke-dasharray="">3</text><text fill="#000000" stroke="none" font-family="Arial" font-size="14px" font-style="normal" font-weight="normal" text-decoration="normal" x="320" y="215.808" text-anchor="middle">3</text></g><g class="dcg-svg-axis-value"><text fill="none" stroke="#ffffff" font-family="Arial" font-size="14px" font-style="normal" font-weight="normal" text-decoration="normal" x="360" y="215.808" text-anchor="middle" stroke-miterlimit="2" stroke-width="3" stroke-dasharray="">4</text><text fill="#000000" stroke="none" font-family="Arial" font-size="14px" font-style="normal" font-weight="normal" text-decoration="normal" x="360" y="215.808" text-anchor="middle">4</text></g><g class="dcg-svg-axis-value dcg-svg-offcenter-axis-value"><text fill="none" stroke="#ffffff" font-family="Arial" font-size="14px" font-style="normal" font-weight="normal" text-decoration="normal" x="393.1083333492279" y="215.808" text-anchor="middle" stroke-miterlimit="2" stroke-width="3" stroke-dasharray="">5</text><text fill="#000000" stroke="none" font-family="Arial" font-size="14px" font-style="normal" font-weight="normal" text-decoration="normal" x="393.1083333492279" y="215.808" text-anchor="middle">5</text></g><g class="dcg-svg-axis-value dcg-svg-offcenter-axis-value"><text fill="none" stroke="#ffffff" font-family="Arial" font-size="14px" font-style="normal" font-weight="normal" text-decoration="normal" x="188.77500009536743" y="393.808" text-anchor="middle" stroke-miterlimit="2" stroke-width="3" stroke-dasharray="">-5</text><text fill="#000000" stroke="none" font-family="Arial" font-size="14px" font-style="normal" font-weight="normal" text-decoration="normal" x="188.77500009536743" y="393.808" text-anchor="middle">-5</text></g><g class="dcg-svg-axis-value"><text fill="none" stroke="#ffffff" font-family="Arial" font-size="14px" font-style="normal" font-weight="normal" text-decoration="normal" x="188.77500009536743" y="363.808" text-anchor="middle" stroke-miterlimit="2" stroke-width="3" stroke-dasharray="">-4</text><text fill="#000000" stroke="none" font-family="Arial" font-size="14px" font-style="normal" font-weight="normal" text-decoration="normal" x="188.77500009536743" y="363.808" text-anchor="middle">-4</text></g><g class="dcg-svg-axis-value"><text fill="none" stroke="#ffffff" font-family="Arial" font-size="14px" font-style="normal" font-weight="normal" text-decoration="normal" x="188.77500009536743" y="323.808" text-anchor="middle" stroke-miterlimit="2" stroke-width="3" stroke-dasharray="">-3</text><text fill="#000000" stroke="none" font-family="Arial" font-size="14px" font-style="normal" font-weight="normal" text-decoration="normal" x="188.77500009536743" y="323.808" text-anchor="middle">-3</text></g><g class="dcg-svg-axis-value"><text fill="none" stroke="#ffffff" font-family="Arial" font-size="14px" font-style="normal" font-weight="normal" text-decoration="normal" x="188.77500009536743" y="283.808" text-anchor="middle" stroke-miterlimit="2" stroke-width="3" stroke-dasharray="">-2</text><text fill="#000000" stroke="none" font-family="Arial" font-size="14px" font-style="normal" font-weight="normal" text-decoration="normal" x="188.77500009536743" y="283.808" text-anchor="middle">-2</text></g><g class="dcg-svg-axis-value"><text fill="none" stroke="#ffffff" font-family="Arial" font-size="14px" font-style="normal" font-weight="normal" text-decoration="normal" x="188.77500009536743" y="243.808" text-anchor="middle" stroke-miterlimit="2" stroke-width="3" stroke-dasharray="">-1</text><text fill="#000000" stroke="none" font-family="Arial" font-size="14px" font-style="normal" font-weight="normal" text-decoration="normal" x="188.77500009536743" y="243.808" text-anchor="middle">-1</text></g><g class="dcg-svg-axis-value"><text fill="none" stroke="#ffffff" font-family="Arial" font-size="14px" font-style="normal" font-weight="normal" text-decoration="normal" x="191.1083333492279" y="163.808" text-anchor="middle" stroke-miterlimit="2" stroke-width="3" stroke-dasharray="">1</text><text fill="#000000" stroke="none" font-family="Arial" font-size="14px" font-style="normal" font-weight="normal" text-decoration="normal" x="191.1083333492279" y="163.808" text-anchor="middle">1</text></g><g class="dcg-svg-axis-value"><text fill="none" stroke="#ffffff" font-family="Arial" font-size="14px" font-style="normal" font-weight="normal" text-decoration="normal" x="191.1083333492279" y="123.808" text-anchor="middle" stroke-miterlimit="2" stroke-width="3" stroke-dasharray="">2</text><text fill="#000000" stroke="none" font-family="Arial" font-size="14px" font-style="normal" font-weight="normal" text-decoration="normal" x="191.1083333492279" y="123.808" text-anchor="middle">2</text></g><g class="dcg-svg-axis-value"><text fill="none" stroke="#ffffff" font-family="Arial" font-size="14px" font-style="normal" font-weight="normal" text-decoration="normal" x="191.1083333492279" y="83.808" text-anchor="middle" stroke-miterlimit="2" stroke-width="3" stroke-dasharray="">3</text><text fill="#000000" stroke="none" font-family="Arial" font-size="14px" font-style="normal" font-weight="normal" text-decoration="normal" x="191.1083333492279" y="83.808" text-anchor="middle">3</text></g><g class="dcg-svg-axis-value"><text fill="none" stroke="#ffffff" font-family="Arial" font-size="14px" font-style="normal" font-weight="normal" text-decoration="normal" x="191.1083333492279" y="43.808" text-anchor="middle" stroke-miterlimit="2" stroke-width="3" stroke-dasharray="">4</text><text fill="#000000" stroke="none" font-family="Arial" font-size="14px" font-style="normal" font-weight="normal" text-decoration="normal" x="191.1083333492279" y="43.808" text-anchor="middle">4</text></g><g class="dcg-svg-axis-value dcg-svg-offcenter-axis-value"><text fill="none" stroke="#ffffff" font-family="Arial" font-size="14px" font-style="normal" font-weight="normal" text-decoration="normal" x="191.1083333492279" y="13.808" text-anchor="middle" stroke-miterlimit="2" stroke-width="3" stroke-dasharray="">5</text><text fill="#000000" stroke="none" font-family="Arial" font-size="14px" font-style="normal" font-weight="normal" text-decoration="normal" x="191.1083333492279" y="13.808" text-anchor="middle">5</text></g></g></g></g><g id="expressions-e53a021f"><g id="sketch-e53a021f"><title>Expression 1</title><path fill="#2d70b3" stroke="none" paint-order="stroke fill markers" d="" fill-opacity="0.4"/><g><path fill="none" stroke="#2d70b3" class="dcg-svg-curve" paint-order="fill stroke markers" d=" M 200.09656342707706 405.5 L 200.09656342707706 405.5 L 200.09765625 304.494397918711 L 200.390625 280.4119982655925 L 200.78125 268.37079843903325 L 201.26953125 259.9366638264375 L 201.85546875 253.34425388059782 L 202.5390625 247.89546399987825 L 203.3203125 243.23524123702077 L 204.19921875 239.1556596955275 L 205.2734375 235.19864752579224 L 206.4453125 231.71264049703623 L 207.8125 228.37079843903322 L 209.375 225.20354859712825 L 211.1328125 222.21820386525206 L 213.18359375 219.28104717891074 L 215.625 216.32959861247397 L 218.26171875 213.620733657251 L 221.19140625 211.0360085647698 L 224.4140625 208.57679757182947 L 227.9296875 206.23975659354926 L 231.8359375 203.96569391599343 L 236.23046875 201.71944153410914 L 241.11328125 199.52311408528425 L 246.58203125 197.3536627571064 L 252.734375 195.19864752579224 L 259.66796875 193.0527495090088 L 267.48046875 190.91527602374305 L 276.26953125 188.78835656361895 L 286.1328125 186.6756545134382 L 297.265625 184.56402438176303 L 309.765625 182.46374546938927 L 323.828125 180.36962777688242 L 339.74609375 178.26881256831993 L 357.6171875 176.17825670326891 L 377.83203125 174.08200008691418 L 400 172.04119982655925" stroke-linecap="round" stroke-linejoin="round" stroke-miterlimit="10" stroke-width="2.5" stroke-opacity="0.9" stroke-dasharray=""/></g></g><g id="sketch-e53a021f"><title>Expression 2</title><path fill="#c74440" stroke="none" paint-order="stroke fill markers" d="" fill-opacity="0.4"/><g><path fill="none" stroke="#c74440" class="dcg-svg-curve" paint-order="fill stroke markers" d=" M 200.28313859363462 405.5 L 200.28313859363462 405.5 L 200.390625 385.1554685042163 L 200.78125 357.4295812818185 L 201.26953125 338.00926865055044 L 201.85546875 322.8296837823543 L 202.5390625 310.28338142815267 L 203.3203125 299.5528219643654 L 204.19921875 290.1592383212694 L 205.17578125 281.79556640692704 L 206.25 274.2519196146251 L 207.421875 267.37790933755866 L 208.69140625 261.06178815972635 L 210.15625 254.831606983357 L 211.71875 249.1075732377301 L 213.37890625 243.80800591588692 L 215.234375 238.61300265903043 L 217.28515625 233.56125364605876 L 219.53125 228.67454828709046 L 221.97265625 223.9632268608351 L 224.609375 219.43007944855498 L 227.5390625 214.93096011148737 L 230.859375 210.37755440553545 L 234.47265625 205.94852067168006 L 238.28125 201.7567693573934 L 242.3828125 197.68546158499572 L 246.6796875 193.8228136493537 L 251.26953125 190.07131244534696 L 256.25 186.36293652117627 L 261.5234375 182.7784501735888 L 267.1875 179.25568943167818 L 273.33984375 175.75101687844653 L 279.8828125 172.33274948490202 L 287.01171875 168.91346585017953 L 294.62890625 165.55665847338128 L 302.83203125 162.2313024636529 L 311.71875 158.9157960714222 L 321.2890625 155.62811244927497 L 331.640625 152.3521512901218 L 342.87109375 149.07746690820696 L 354.98046875 145.82321412795557 L 368.06640625 142.58081110055033 L 382.2265625 139.34514769272036 L 397.55859375 136.11376946230212 L 400 135.622483502636" stroke-linecap="round" stroke-linejoin="round" stroke-miterlimit="10" stroke-width="2.5" stroke-opacity="0.9" stroke-dasharray=""/></g></g><g id="sketch-e53a021f"><title>Expression 3</title><path fill="#388c46" stroke="none" paint-order="stroke fill markers" d="" fill-opacity="0.4"/><g><path fill="none" stroke="#388c46" class="dcg-svg-curve" paint-order="fill stroke markers" d=" M 201.15808631968184 405.5 L 201.15808631968184 405.5 L 201.26953125 399.10528747886184 L 201.85546875 377.20577566676207 L 202.5390625 359.10528747886184 L 203.3203125 343.62436255449194 L 204.19921875 330.0722860164216 L 205.17578125 318.00605802197754 L 206.25 307.12287620450553 L 207.421875 297.20577566676207 L 208.69140625 288.0935389658496 L 210.05859375 279.6628551171768 L 211.5234375 271.81715423003186 L 213.18359375 264.05025232247226 L 214.94140625 256.8273624967994 L 216.796875 250.07228601642157 L 218.84765625 243.42459471378228 L 220.99609375 237.1951622209271 L 223.33984375 231.08820388527556 L 225.87890625 225.12893422648304 L 228.61328125 219.3326020276156 L 231.54296875 213.7072620167485 L 234.765625 208.0935389658496 L 238.18359375 202.68188431221142 L 241.9921875 197.1951622209271 L 246.09375 191.81715423003186 L 250.48828125 186.56205739190813 L 255.078125 181.54082210855375 L 259.9609375 176.63908238969833 L 265.0390625 171.94774152165502 L 270.41015625 167.3686582348726 L 276.07421875 162.90369548203876 L 282.12890625 158.48439659429974 L 288.57421875 154.12452658336463 L 295.41015625 149.8342861257701 L 302.63671875 145.62099804601837 L 310.3515625 141.43859391240352 L 318.5546875 137.30076795427823 L 327.24609375 133.21802146178013 L 336.5234375 129.15693038948805 L 346.38671875 125.13148948659112 L 356.93359375 121.11670765750175 L 368.1640625 117.12809910863174 L 380.078125 113.17795858733199 L 392.7734375 109.24662522624959 L 400 107.12287620450552" stroke-linecap="round" stroke-linejoin="round" stroke-miterlimit="10" stroke-width="2.5" stroke-opacity="0.9" stroke-dasharray=""/></g></g><g id="sketch-e53a021f"><title>log x</title></g><g id="sketch-e53a021f"><title>ln x</title></g><g id="sketch-e53a021f"><title>ld x</title></g><g id="sketch-e53a021f"><title>Expression 7</title><path fill="#2d70b3" stroke="none" paint-order="stroke fill markers" d="" fill-opacity="0.4"/><g><path fill="none" stroke="#2d70b3" class="dcg-svg-curve" paint-order="fill stroke markers" d=" M 0 199.9996 L 0 199.9996 L 100.78125 199.86769043508033 L 120.5078125 199.58813460515708 L 132.71484375 199.16836820475737 L 141.6015625 198.6129278439696 L 148.6328125 197.92087642041173 L 154.4921875 197.08683771456566 L 159.47265625 196.11960087862312 L 163.8671875 195.00265101736912 L 167.7734375 193.74257102524666 L 171.2890625 192.33898074600847 L 174.51171875 190.77740876764597 L 177.5390625 189.02166310820274 L 180.37109375 187.0777739159731 L 183.10546875 184.87495379361815 L 185.7421875 182.39586546734162 L 188.28125 179.62529913287946 L 190.8203125 176.41869671840354 L 193.359375 172.70743418098488 L 195.703125 168.76524409645026 L 197.94921875 164.45402262875078 L 200.09765625 159.77450495300013 L 202.1484375 154.73412405924097 L 204.19921875 149.06216760564126 L 206.15234375 143.00082299297532 L 208.10546875 136.21820900573024 L 210.05859375 128.6284982336614 L 211.9140625 120.58335175917173 L 213.76953125 111.63133937610286 L 215.625 101.6702372431921 L 217.48046875 90.58629863180872 L 219.3359375 78.25295504174395 L 221.19140625 64.52937090402858 L 223.046875 49.258835366798564 L 224.90234375 32.266972799865215 L 226.7578125 13.359751583580135 L 228.42113011963156 -5.5" stroke-linecap="round" stroke-linejoin="round" stroke-miterlimit="10" stroke-width="2.5" stroke-opacity="0.9" stroke-dasharray=""/></g></g><g id="sketch-e53a021f"><title>Expression 8</title><path fill="#c74440" stroke="none" paint-order="stroke fill markers" d="" fill-opacity="0.4"/><g><path fill="none" stroke="#c74440" class="dcg-svg-curve" paint-order="fill stroke markers" d=" M 0 199.73048212003658 L 0 199.73048212003658 L 33.7890625 199.37273989470185 L 57.03125 198.87850714490142 L 74.90234375 198.24680813780708 L 89.35546875 197.48375887003718 L 101.5625 196.58580427065138 L 112.109375 195.5557379858726 L 121.484375 194.3819264012916 L 129.8828125 193.06937659481568 L 137.40234375 191.6359894086806 L 144.3359375 190.0529314306796 L 150.78125 188.31377609430896 L 156.73828125 186.43712222400578 L 162.3046875 184.41207397832952 L 167.578125 182.21540596087178 L 172.55859375 179.8572525036598 L 177.34375 177.29754191939904 L 181.93359375 174.5371813014364 L 186.328125 171.58029964625393 L 190.625 168.35739556598816 L 194.7265625 164.94060873725834 L 198.828125 161.15487527970953 L 202.83203125 157.06530521354773 L 206.73828125 152.6609050716429 L 210.64453125 147.8046852369116 L 214.55078125 142.4502963704545 L 218.26171875 136.85571013946517 L 221.875 130.88619773891347 L 225.390625 124.53680310124417 L 228.80859375 117.80501439214083 L 232.12890625 110.69101396031235 L 235.3515625 103.19791661590044 L 238.4765625 95.33199156360939 L 241.6015625 86.82689868801071 L 244.62890625 77.92908939319402 L 247.65625 68.33172331916816 L 250.5859375 58.32610654001317 L 253.515625 47.560151966098545 L 256.4453125 35.97608069434409 L 259.375 23.511723139443745 L 262.3046875 10.100185381106826 L 265.13671875 -3.8322645166511506 L 265.45254580578825 -5.5" stroke-linecap="round" stroke-linejoin="round" stroke-miterlimit="10" stroke-width="2.5" stroke-opacity="0.9" stroke-dasharray=""/></g></g><g id="sketch-e53a021f"><title>Expression 9</title><path fill="#388c46" stroke="none" paint-order="stroke fill markers" d="" fill-opacity="0.4"/><g><path fill="none" stroke="#388c46" class="dcg-svg-curve" paint-order="fill stroke markers" d=" M 0 198.75 L 0 198.75 L 24.51171875 198.0884789815735 L 44.53125 197.29578596251696 L 61.5234375 196.36988807058404 L 76.3671875 195.30505654517407 L 89.453125 194.11004659972056 L 101.171875 192.78387179753466 L 111.81640625 191.32214637708805 L 121.58203125 189.72206252153762 L 130.56640625 187.9906326170165 L 138.96484375 186.10928276293473 L 146.77734375 184.09551569738156 L 154.19921875 181.91265731743937 L 161.1328125 179.6035183402634 L 167.7734375 177.11605253457128 L 174.12109375 174.4552406646437 L 180.17578125 171.62944190103306 L 185.9375 168.65060720068894 L 191.50390625 165.47604715830565 L 196.875 162.1084803682607 L 202.1484375 158.4827485268091 L 207.2265625 154.66378144382045 L 212.20703125 150.5772330992658 L 217.08984375 146.2134261462262 L 221.875 141.5632882327741 L 226.66015625 136.51112094535762 L 231.34765625 131.13879598099493 L 236.03515625 125.31187367687015 L 240.72265625 118.99188675062616 L 245.3125 112.28567345468986 L 249.70703125 105.3451925493121 L 254.00390625 98.02824756440698 L 258.203125 90.33143697685291 L 262.20703125 82.45218791705182 L 266.2109375 74.00684622290777 L 270.1171875 65.1830779999595 L 273.92578125 55.98526435376931 L 277.734375 46.15993470576734 L 281.4453125 35.942139694415545 L 285.15625 25.045696148338266 L 288.76953125 13.740993757859144 L 292.3828125 1.7058360809204487 L 294.41663459644747 -5.5" stroke-linecap="round" stroke-linejoin="round" stroke-miterlimit="10" stroke-width="2.5" stroke-opacity="0.9" stroke-dasharray=""/></g></g><g id="sketch-e53a021f"><title>10^x</title></g><g id="sketch-e53a021f"><title>e^x</title></g><g id="sketch-e53a021f"><title>2^x</title></g></g><g id="labels-e53a021f"><g transform="rotate(0,0,0) translate(360,175.9176003468815)"><g class="dcg-svg-label"><g transform="translate(-24.399993896484375,-12.9176003468815)"><g><text fill="none" stroke="#FFF" font-family="arial, sans-serif" font-size="23.1px" font-style="normal" font-weight="400" text-decoration="normal" x="0" y="20.7332" text-anchor="start" stroke-linecap="round" stroke-linejoin="round" stroke-miterlimit="2" stroke-width="3" stroke-dasharray="">log x</text></g></g><g transform="translate(-24.399993896484375,-12.9176003468815)"><g><text fill="rgb(45, 112, 179)" stroke="none" font-family="arial, sans-serif" font-size="23.1px" font-style="normal" font-weight="400" text-decoration="normal" x="0" y="20.7332" text-anchor="start">log x</text></g></g></g></g><g transform="rotate(0,0,0) translate(360,144.54822555520437)"><g class="dcg-svg-label"><g transform="translate(-17.9666748046875,-12.548225555204368)"><g><text fill="none" stroke="#FFF" font-family="arial, sans-serif" font-size="23.1px" font-style="normal" font-weight="400" text-decoration="normal" x="0" y="20.7332" text-anchor="start" stroke-linecap="round" stroke-linejoin="round" stroke-miterlimit="2" stroke-width="3" stroke-dasharray="">ln x</text></g></g><g transform="translate(-17.9666748046875,-12.548225555204368)"><g><text fill="rgb(199, 68, 64)" stroke="none" font-family="arial, sans-serif" font-size="23.1px" font-style="normal" font-weight="400" text-decoration="normal" x="0" y="20.7332" text-anchor="start">ln x</text></g></g></g></g><g transform="rotate(0,0,0) translate(360,120)"><g class="dcg-svg-label"><g transform="translate(-17.9666748046875,-13)"><g><text fill="none" stroke="#FFF" font-family="arial, sans-serif" font-size="23.1px" font-style="normal" font-weight="400" text-decoration="normal" x="0" y="20.7332" text-anchor="start" stroke-linecap="round" stroke-linejoin="round" stroke-miterlimit="2" stroke-width="3" stroke-dasharray="">ld x</text></g></g><g transform="translate(-17.9666748046875,-13)"><g><text fill="rgb(56, 140, 70)" stroke="none" font-family="arial, sans-serif" font-size="23.1px" font-style="normal" font-weight="400" text-decoration="normal" x="0" y="20.7332" text-anchor="start">ld x</text></g></g></g></g><g transform="rotate(0,0,0) translate(224.0823996531185,40)"><g class="dcg-svg-label"><g transform="translate(-24.115740107220063,-13)"><g><text fill="none" stroke="#FFF" font-family="arial, sans-serif" font-size="23.1px" font-style="normal" font-weight="400" text-decoration="normal" x="0" y="20.7332" text-anchor="start" stroke-linecap="round" stroke-linejoin="round" stroke-miterlimit="2" stroke-width="3" stroke-dasharray="">10^x</text></g></g><g transform="translate(-24.115740107220063,-13)"><g><text fill="rgb(45, 112, 179)" stroke="none" font-family="arial, sans-serif" font-size="23.1px" font-style="normal" font-weight="400" text-decoration="normal" x="0" y="20.7332" text-anchor="start">10^x</text></g></g></g></g><g transform="rotate(0,0,0) translate(243.94449154672438,80)"><g class="dcg-svg-label"><g transform="translate(-17.561160247896254,-13)"><g><text fill="none" stroke="#FFF" font-family="arial, sans-serif" font-size="23.1px" font-style="normal" font-weight="400" text-decoration="normal" x="0" y="20.7332" text-anchor="start" stroke-linecap="round" stroke-linejoin="round" stroke-miterlimit="2" stroke-width="3" stroke-dasharray="">e^x</text></g></g><g transform="translate(-17.561160247896254,-13)"><g><text fill="rgb(199, 68, 64)" stroke="none" font-family="arial, sans-serif" font-size="23.1px" font-style="normal" font-weight="400" text-decoration="normal" x="0" y="20.7332" text-anchor="start">e^x</text></g></g></g></g><g transform="rotate(0,0,0) translate(240,120)"><g class="dcg-svg-label"><g transform="translate(-17.616668701171875,-13)"><g><text fill="none" stroke="#FFF" font-family="arial, sans-serif" font-size="23.1px" font-style="normal" font-weight="400" text-decoration="normal" x="0" y="20.7332" text-anchor="start" stroke-linecap="round" stroke-linejoin="round" stroke-miterlimit="2" stroke-width="3" stroke-dasharray="">2^x</text></g></g><g transform="translate(-17.616668701171875,-13)"><g><text fill="rgb(56, 140, 70)" stroke="none" font-family="arial, sans-serif" font-size="23.1px" font-style="normal" font-weight="400" text-decoration="normal" x="0" y="20.7332" text-anchor="start">2^x</text></g></g></g></g></g></g></svg>