<svg version="1.1" xmlns="http://www.w3.org/2000/svg" xmlns:xlink="http://www.w3.org/1999/xlink" width="800" height="800"><defs/><g transform="scale(2,2)"><g id="background-63382c4c"><rect fill="white" stroke="none" x="0" y="0" width="400" height="400" class="dcg-svg-background"/></g><g id="background-images-63382c4c"/><g id="graphpaper-63382c4c"><g id="grid-63382c4c"><g><path fill="none" stroke="rgb(0,0,0)" class="dcg-svg-minor-gridline" paint-order="fill stroke markers" d=" M 100.5 0 L 100.5 400" stroke-opacity="0.2" stroke-miterlimit="10" stroke-dasharray=""/><path fill="none" stroke="rgb(0,0,0)" class="dcg-svg-minor-gridline" paint-order="fill stroke markers" d=" M 300.5 0 L 300.5 400" stroke-opacity="0.2" stroke-miterlimit="10" stroke-dasharray=""/><path fill="none" stroke="rgb(0,0,0)" class="dcg-svg-minor-gridline" paint-order="fill stroke markers" d=" M 0 333.5 L 400 333.5" stroke-opacity="0.2" stroke-miterlimit="10" stroke-dasharray=""/><path fill="none" stroke="rgb(0,0,0)" class="dcg-svg-minor-gridline" paint-order="fill stroke markers" d=" M 0 66.5 L 400 66.5" stroke-opacity="0.2" stroke-miterlimit="10" stroke-dasharray=""/><path fill="none" stroke="rgb(0,0,0)" class="dcg-svg-major-gridline" paint-order="fill stroke markers" d=" M 100.5 0 L 100.5 400" stroke-opacity="0.2500000000000001" stroke-miterlimit="10" stroke-dasharray=""/><path fill="none" stroke="rgb(0,0,0)" class="dcg-svg-major-gridline" paint-order="fill stroke markers" d=" M 300.5 0 L 300.5 400" stroke-opacity="0.2500000000000001" stroke-miterlimit="10" stroke-dasharray=""/><path fill="none" stroke="rgb(0,0,0)" class="dcg-svg-major-gridline" paint-order="fill stroke markers" d=" M 0 333.5 L 400 333.5" stroke-opacity="0.2500000000000001" stroke-miterlimit="10" stroke-dasharray=""/><path fill="none" stroke="rgb(0,0,0)" class="dcg-svg-major-gridline" paint-order="fill stroke markers" d=" M 0 66.5 L 400 66.5" stroke-opacity="0.2500000000000001" stroke-miterlimit="10" stroke-dasharray=""/></g></g><g id="axis-63382c4c"><g id="yaxis-63382c4c"><title>Y axis</title><g><path fill="none" stroke="rgb(0,0,0)" class="dcg-svg-axis-line" paint-order="fill stroke markers" d=" M 200 0 L 200 400" stroke-opacity="0.9" stroke-miterlimit="10" stroke-width="1.5" stroke-dasharray=""/></g></g><g id="xaxis-63382c4c"><title>X axis</title><g><path fill="none" stroke="rgb(0,0,0)" class="dcg-svg-axis-line" paint-order="fill stroke markers" d=" M 0 200 L 400 200" stroke-opacity="0.9" stroke-miterlimit="10" stroke-width="1.5" stroke-dasharray=""/></g></g><g><g class="dcg-svg-axis-value"><text fill="none" stroke="#ffffff" font-family="Arial" font-size="14px" font-style="normal" font-weight="normal" text-decoration="normal" x="191.1083333492279" y="215.808" text-anchor="middle" stroke-miterlimit="2" stroke-width="3" stroke-dasharray="">0</text><text fill="#000000" stroke="none" font-family="Arial" font-size="14px" font-style="normal" font-weight="normal" text-decoration="normal" x="191.1083333492279" y="215.808" text-anchor="middle">0</text></g><g class="dcg-svg-axis-value dcg-svg-offcenter-axis-value"><text fill="none" stroke="#ffffff" font-family="Arial" font-size="14px" font-style="normal" font-weight="normal" text-decoration="normal" x="10.166666507720947" y="215.808" text-anchor="middle" stroke-miterlimit="2" stroke-width="3" stroke-dasharray="">-π</text><text fill="#000000" stroke="none" font-family="Arial" font-size="14px" font-style="normal" font-weight="normal" text-decoration="normal" x="10.166666507720947" y="215.808" text-anchor="middle">-π</text></g><g class="dcg-svg-axis-value"><text fill="none" stroke="#ffffff" font-family="Arial" font-size="14px" font-style="normal" font-weight="normal" text-decoration="normal" x="97.66666674613953" y="215.808" text-anchor="middle" stroke-miterlimit="2" stroke-width="3" stroke-dasharray="">-π/2</text><text fill="#000000" stroke="none" font-family="Arial" font-size="14px" font-style="normal" font-weight="normal" text-decoration="normal" x="97.66666674613953" y="215.808" text-anchor="middle">-π/2</text></g><g class="dcg-svg-axis-value"><text fill="none" stroke="#ffffff" font-family="Arial" font-size="14px" font-style="normal" font-weight="normal" text-decoration="normal" x="300" y="215.808" text-anchor="middle" stroke-miterlimit="2" stroke-width="3" stroke-dasharray="">π/2</text><text fill="#000000" stroke="none" font-family="Arial" font-size="14px" font-style="normal" font-weight="normal" text-decoration="normal" x="300" y="215.808" text-anchor="middle">π/2</text></g><g class="dcg-svg-axis-value dcg-svg-offcenter-axis-value"><text fill="none" stroke="#ffffff" font-family="Arial" font-size="14px" font-style="normal" font-weight="normal" text-decoration="normal" x="392.16666650772095" y="215.808" text-anchor="middle" stroke-miterlimit="2" stroke-width="3" stroke-dasharray="">π</text><text fill="#000000" stroke="none" font-family="Arial" font-size="14px" font-style="normal" font-weight="normal" text-decoration="normal" x="392.16666650772095" y="215.808" text-anchor="middle">π</text></g><g class="dcg-svg-axis-value"><text fill="none" stroke="#ffffff" font-family="Arial" font-size="14px" font-style="normal" font-weight="normal" text-decoration="normal" x="188.77500009536743" y="337.14133333333336" text-anchor="middle" stroke-miterlimit="2" stroke-width="3" stroke-dasharray="">-1</text><text fill="#000000" stroke="none" font-family="Arial" font-size="14px" font-style="normal" font-weight="normal" text-decoration="normal" x="188.77500009536743" y="337.14133333333336" text-anchor="middle">-1</text></g><g class="dcg-svg-axis-value"><text fill="none" stroke="#ffffff" font-family="Arial" font-size="14px" font-style="normal" font-weight="normal" text-decoration="normal" x="191.1083333492279" y="70.47466666666666" text-anchor="middle" stroke-miterlimit="2" stroke-width="3" stroke-dasharray="">1</text><text fill="#000000" stroke="none" font-family="Arial" font-size="14px" font-style="normal" font-weight="normal" text-decoration="normal" x="191.1083333492279" y="70.47466666666666" text-anchor="middle">1</text></g></g></g></g><g id="expressions-63382c4c"><g id="sketch-63382c4c"><title>Expression 1</title><path fill="#c74440" stroke="none" paint-order="stroke fill markers" d="" fill-opacity="0.4"/><g><path fill="none" stroke="#c74440" class="dcg-svg-curve" paint-order="fill stroke markers" d=" M 0 333.33333333333337 L 0 333.33333333333337 L 2.8320312500000284 333.2014247805431 L 5.664062499999972 332.8059601201669 L 8.49609375 332.14772182977026 L 11.425781250000028 331.1916551265625 L 14.35546875 329.9578014251348 L 17.38281250000003 328.3937689164912 L 20.50781250000003 326.4748466554307 L 23.73046875000003 324.1768945441574 L 27.14843750000003 321.3921723010756 L 30.6640625 318.16300401985075 L 34.375 314.3638146667029 L 38.28125000000003 309.9452403713367 L 42.48046875 304.73424394187384 L 46.97265625000003 298.6560127279355 L 51.66015625 291.79050037121203 L 56.54296875000003 284.1105639504566 L 61.71875 275.4309081044818 L 67.1875 265.71975896397123 L 73.14453125000001 254.59255315896766 L 79.8828125 241.4356203666149 L 87.89062500000001 225.20915521997412 L 99.51171875000001 201.02264383193747 L 114.94140624999999 168.99329239482998 L 122.85156249999999 153.16096585525773 L 129.4921875 140.41748797835012 L 135.44921875 129.53306646103619 L 140.91796875 120.0814268799247 L 145.99609375 111.83122162133436 L 150.87890625 104.42649619718671 L 155.56640625 97.84613464049161 L 160.05859375 92.05898101279314 L 164.2578125 87.13454149679305 L 168.26171875 82.89602777912779 L 171.97265625 79.38078792290051 L 175.48828125 76.4283367593891 L 178.90625 73.91902328259715 L 182.12890625 71.88578225230938 L 185.25390625 70.22756719270689 L 188.28125 68.91926834250447 L 191.2109375 67.93532209913906 L 194.140625 67.23101140431203 L 196.97265625 66.8173933447622 L 199.8046875 66.66729415872317 L 202.63671875 66.78101083669108 L 205.46875 67.15831837562959 L 208.30078125 67.79847022416746 L 211.23046875 68.73593928223721 L 214.16015625 69.9513486511124 L 217.1875 71.49652456060801 L 220.3125 73.39624258759508 L 223.53515625 75.67471609753832 L 226.85546875 78.35530871689029 L 230.37109375 81.55399555872047 L 234.08203125 85.32194794274795 L 237.98828125 89.70879636351079 L 242.1875 94.88714298311915 L 246.6796875 100.93227304865042 L 251.3671875 107.7654322181123 L 256.25 115.41422877818059 L 261.42578125 124.06393075374037 L 266.89453125 133.74706013031272 L 272.8515625 144.84822503487536 L 279.4921875 157.78754992584453 L 287.40234375 173.7873869773226 L 298.6328125 197.1367892966041 L 315.0390625 231.2055944778058 L 322.94921875 247.03047410069473 L 329.58984375 259.76541497136265 L 335.546875 270.640483291506 L 341.015625 280.08219725118255 L 346.09375 288.32210367868953 L 350.9765625 295.7160060074309 L 355.6640625 302.2851882581093 L 360.15625 308.0609597670126 L 364.35546875 312.9742184914478 L 368.26171875 317.1039722208722 L 371.97265625 320.6192120770995 L 375.48828125 323.5716632406109 L 378.90625 326.08097671740285 L 382.12890625 328.11421774769065 L 385.25390625 329.77243280729306 L 388.28125 331.0807316574955 L 391.2109375 332.06467790086094 L 394.140625 332.768988595688 L 396.97265625 333.1826066552378 L 399.8046875 333.33270584127683 L 400 333.33333333333337" stroke-linecap="round" stroke-linejoin="round" stroke-miterlimit="10" stroke-width="2.5" stroke-opacity="0.3" stroke-dasharray=""/></g></g><g id="sketch-63382c4c"><title>Expression 2</title><path fill="#c74440" stroke="none" paint-order="stroke fill markers" d="" fill-opacity="0.4"/><g><path fill="none" stroke="#c74440" class="dcg-svg-curve" paint-order="fill stroke markers" d=" M 0 66.66666666666666 L 0 66.66666666666666 L 1.953125 66.79212580665671 L 4.003906250000028 67.19337912385387 L 6.054687500000028 67.86907539269629 L 8.203125000000028 68.86823526367652 L 10.351562500000028 70.16096059881727 L 12.6953125 71.89906404386386 L 15.136718750000028 74.06344294302238 L 17.7734375 76.79197701311351 L 20.60546875000003 80.15394393710727 L 23.73046875000003 84.35074146026913 L 27.05078125000003 89.32571052883867 L 30.6640625 95.28128360753553 L 34.57031250000003 102.26823361546897 L 39.0625 110.87400977385197 L 44.62890625 122.13744700168459 L 63.08593750000003 159.9749466563765 L 67.48046874999997 168.13168619581023 L 71.28906249999997 174.67048078421925 L 74.80468750000001 180.1836496304817 L 78.12500000000003 184.86736355751583 L 81.25000000000001 188.7646408201697 L 84.08203125000001 191.8363526804841 L 86.71875000000003 194.2806503802354 L 89.16015625 196.17154650676312 L 91.50390625000001 197.6393195526542 L 93.65234375000001 198.67880906454116 L 95.703125 199.39350902851868 L 97.75390625 199.83409707602024 L 99.80468749999999 199.99874501884008 L 101.75781250000001 199.89837203821963 L 103.7109375 199.54746328231963 L 105.76171874999999 198.9108279474487 L 107.81249999999999 198.00208354630294 L 109.96093749999999 196.76233473126723 L 112.20703124999999 195.15750171002674 L 114.64843750000001 193.06441665041234 L 117.1875 190.5152406666848 L 120.01953125000001 187.24374543921164 L 123.046875 183.2757596348973 L 126.3671875 178.40618023835438 L 129.8828125 172.71731345725829 L 133.69140625 166.01509888588606 L 137.98828125 157.89778866355817 L 143.1640625 147.54068799440608 L 151.46484375 130.26645452460565 L 159.5703125 113.58994078375842 L 164.55078125 103.90858208455222 L 168.75 96.29531779869319 L 172.4609375 90.09903993185918 L 175.87890625 84.90938966104358 L 179.1015625 80.52622817998581 L 182.12890625 76.90060408172987 L 184.9609375 73.97008511701614 L 187.5 71.74136449924754 L 189.94140625 69.96759507003455 L 192.1875 68.66458312036374 L 194.3359375 67.71932717420472 L 196.38671875 67.09572429862698 L 198.4375 66.74696958632182 L 200.390625 66.67168654405702 L 202.34375 66.84730288808728 L 204.39453125 67.30099438290284 L 206.4453125 68.02868228763728 L 208.59375 69.08159561363735 L 210.83984375 70.49512015990354 L 213.18359375 72.30341892744879 L 215.625 74.53858237677633 L 218.26171875 77.3404137202667 L 221.19140625 80.90298576006093 L 224.4140625 85.33316613590789 L 227.83203125 90.56793247942775 L 231.4453125 96.63613513755968 L 235.44921875 103.90858208455222 L 240.0390625 112.810023997231 L 245.8984375 124.7667926137471 L 261.5234375 156.9442350280327 L 266.11328125 165.6579498667194 L 270.1171875 172.71731345725829 L 273.73046875 178.55666954199077 L 277.05078125 183.4110087939791 L 280.2734375 187.60242198039657 L 283.203125 190.9315237414391 L 285.9375 193.59928620822956 L 288.4765625 195.6789006625965 L 290.8203125 197.24689832639143 L 293.06640625 198.42464875533474 L 295.21484375 199.2481127973549 L 297.265625 199.75417414551853 L 299.31640625 199.98462702341436 L 301.26953125 199.94698390789094 L 303.22265625 199.65862205298706 L 305.2734375 199.08720648297324 L 307.32421875 198.2429499767208 L 309.47265625 197.06968342333312 L 311.71875 195.5328532556493 L 314.0625 193.59928620822956 L 316.6015625 191.13641636771285 L 319.3359375 188.07350099940697 L 322.36328125 184.2125611508921 L 325.68359375 179.4506172242772 L 329.19921875 173.86331899785156 L 332.91015625 167.43125669586468 L 337.109375 159.5994693374032 L 342.08984375 149.73033668905293 L 349.21875 134.9694152348609 L 359.47265625 113.78538915371614 L 364.453125 104.09225076409818 L 368.65234375 96.46555296133153 L 372.36328125 90.25493246777894 L 375.78125 85.05019446990221 L 379.00390625 80.651318570846 L 382.03125 77.00976231668623 L 384.86328125 74.06344294302238 L 387.40234375 71.81992477774142 L 389.84375 70.03145462713087 L 392.08984375 68.71458430956343 L 394.23828125 67.75583871921796 L 396.2890625 67.119203384347 L 398.33984375 66.75731878798231 L 400 66.66666666666666" stroke-linecap="round" stroke-linejoin="round" stroke-miterlimit="10" stroke-width="2.5" stroke-opacity="0.9" stroke-dasharray=""/></g></g><g id="sketch-63382c4c"><title>Expression 3</title><path fill="#2d70b3" stroke="none" paint-order="stroke fill markers" d="" fill-opacity="0.4"/><g><path fill="none" stroke="#2d70b3" class="dcg-svg-curve" paint-order="fill stroke markers" d=" M 0 200 L 0 200 L 14.94140625 231.00670760517002 L 22.85156249999997 246.83903414474224 L 29.4921875 259.5825120216499 L 35.44921875 270.4669335389638 L 40.91796875000003 279.9185731200753 L 45.99609374999997 288.1687783786656 L 50.87890625 295.57350380281326 L 55.56640625000003 302.1538653595084 L 60.05859375 307.9410189872068 L 64.25781249999997 312.8654585032069 L 68.26171875 317.1039722208722 L 71.97265625 320.6192120770995 L 75.48828125000001 323.5716632406109 L 78.90625 326.08097671740285 L 82.12890624999999 328.11421774769065 L 85.25390625 329.7724328072931 L 88.28125000000001 331.08073165749556 L 91.21093749999999 332.06467790086094 L 94.14062500000001 332.768988595688 L 96.97265625000003 333.1826066552378 L 99.80468749999999 333.33270584127683 L 102.63671875 333.21898916330895 L 105.46875000000001 332.8416816243704 L 108.30078125000001 332.20152977583257 L 111.23046875 331.2640607177628 L 114.16015625000003 330.0486513488876 L 117.1875 328.503475439392 L 120.31249999999999 326.6037574124049 L 123.53515624999999 324.3252839024617 L 126.85546875 321.6446912831097 L 130.37109375 318.4460044412795 L 134.08203125 314.678052057252 L 137.98828125 310.29120363648923 L 142.1875 305.1128570168808 L 146.6796875 299.0677269513496 L 151.3671875 292.2345677818877 L 156.25 284.5857712218194 L 161.42578125 275.93606924625965 L 166.89453125 266.2529398696873 L 172.8515625 255.15177496512462 L 179.4921875 242.21245007415547 L 187.40234375 226.21261302267735 L 198.6328125 202.86321070339594 L 215.0390625 168.7944055221942 L 222.94921875 152.9695258993052 L 229.58984375 140.23458502863733 L 235.546875 129.35951670849403 L 241.015625 119.9178027488175 L 246.09375 111.67789632131041 L 250.9765625 104.28399399256911 L 255.6640625 97.71481174189061 L 260.15625 91.93904023298735 L 264.35546875 87.02578150855221 L 268.26171875 82.89602777912779 L 271.97265625 79.38078792290051 L 275.48828125 76.42833675938908 L 278.90625 73.91902328259715 L 282.12890625 71.88578225230938 L 285.25390625 70.22756719270691 L 288.28125 68.91926834250447 L 291.2109375 67.93532209913906 L 294.140625 67.23101140431203 L 296.97265625 66.8173933447622 L 299.8046875 66.66729415872317 L 302.63671875 66.78101083669108 L 305.46875 67.15831837562959 L 308.30078125 67.79847022416746 L 311.23046875 68.73593928223721 L 314.16015625 69.9513486511124 L 317.1875 71.49652456060801 L 320.3125 73.39624258759508 L 323.53515625 75.67471609753832 L 326.85546875 78.35530871689028 L 330.37109375 81.5539955587205 L 334.08203125 85.32194794274798 L 337.98828125 89.70879636351074 L 342.1875 94.88714298311919 L 346.6796875 100.93227304865042 L 351.3671875 107.76543221811225 L 356.25 115.41422877818056 L 361.42578125 124.0639307537404 L 366.89453125 133.74706013031278 L 372.8515625 144.84822503487533 L 379.4921875 157.78754992584453 L 387.40234375 173.78738697732257 L 398.6328125 197.1367892966041 L 400 200" stroke-linecap="round" stroke-linejoin="round" stroke-miterlimit="10" stroke-width="2.5" stroke-opacity="0.3" stroke-dasharray=""/></g></g><g id="sketch-63382c4c"><title>Expression 4</title><path fill="#2d70b3" stroke="none" paint-order="stroke fill markers" d="" fill-opacity="0.4"/><g><path fill="none" stroke="#2d70b3" class="dcg-svg-curve" paint-order="fill stroke markers" d=" M 0 200 L 0 200 L 1.953125 199.87454086000994 L 4.003906250000028 199.47328754281278 L 6.054687500000028 198.79759127397034 L 8.203125000000028 197.79843140299013 L 10.351562500000028 196.5057060678494 L 12.6953125 194.7676026228028 L 15.136718750000028 192.60322372364428 L 17.7734375 189.87468965355313 L 20.60546875000003 186.51272272955939 L 23.73046875000003 182.31592520639754 L 27.05078125000003 177.340956137828 L 30.6640625 171.38538305913113 L 34.57031250000003 164.39843305119769 L 39.0625 155.7926568928147 L 44.62890625 144.52921966498207 L 63.08593750000003 106.69172001029015 L 67.48046874999997 98.53498047085641 L 71.28906249999997 91.99618588244742 L 74.80468750000001 86.48301703618496 L 78.12500000000003 81.79930310915083 L 81.25000000000001 77.90202584649695 L 84.08203125000001 74.83031398618257 L 86.71875000000003 72.38601628643127 L 89.16015625 70.49512015990354 L 91.50390625000001 69.02734711401246 L 93.65234375000001 67.9878576021255 L 95.703125 67.27315763814798 L 97.75390625 66.83256959064644 L 99.80468749999999 66.66792164782657 L 101.75781250000001 66.768294628447 L 103.7109375 67.119203384347 L 105.76171874999999 67.75583871921796 L 107.81249999999999 68.66458312036374 L 109.96093749999999 69.90433193539943 L 112.20703124999999 71.50916495663989 L 114.64843750000001 73.60225001625433 L 117.1875 76.15142599998187 L 120.01953125000001 79.42292122745502 L 123.046875 83.39090703176936 L 126.3671875 88.26048642831226 L 129.8828125 93.94935320940839 L 133.69140625 100.65156778078058 L 137.98828125 108.7688780031085 L 143.1640625 119.12597867226059 L 151.46484375 136.400212142061 L 159.5703125 153.07672588290825 L 164.55078125 162.75808458211446 L 168.75 170.37134886797347 L 172.4609375 176.56762673480748 L 175.87890625 181.75727700562308 L 179.1015625 186.14043848668084 L 182.12890625 189.76606258493678 L 184.9609375 192.69658154965052 L 187.5 194.92530216741912 L 189.94140625 196.6990715966321 L 192.1875 198.00208354630294 L 194.3359375 198.94733949246194 L 196.38671875 199.57094236803968 L 198.4375 199.91969708034483 L 200.390625 199.99498012260963 L 202.34375 199.81936377857934 L 204.39453125 199.3656722837638 L 206.4453125 198.63798437902938 L 208.59375 197.58507105302934 L 210.83984375 196.17154650676312 L 213.18359375 194.36324773921785 L 215.625 192.12808428989032 L 218.26171875 189.32625294639996 L 221.19140625 185.7636809066057 L 224.4140625 181.33350053075878 L 227.83203125 176.0987341872389 L 231.4453125 170.03053152910698 L 235.44921875 162.75808458211446 L 240.0390625 153.85664266943567 L 245.8984375 141.89987405291956 L 261.5234375 109.72243163863395 L 266.11328125 101.00871679994727 L 270.1171875 93.94935320940839 L 273.73046875 88.10999712467589 L 277.05078125 83.25565787268754 L 280.2734375 79.06424468627009 L 283.203125 75.73514292522756 L 285.9375 73.06738045843713 L 288.4765625 70.98776600407015 L 290.8203125 69.41976834027523 L 293.06640625 68.24201791133191 L 295.21484375 67.41855386931172 L 297.265625 66.91249252114812 L 299.31640625 66.6820396432523 L 301.26953125 66.71968275877572 L 303.22265625 67.00804461367963 L 305.2734375 67.57946018369341 L 307.32421875 68.42371668994585 L 309.47265625 69.59698324333357 L 311.71875 71.1338134110174 L 314.0625 73.0673804584371 L 316.6015625 75.5302502989538 L 319.3359375 78.59316566725967 L 322.36328125 82.45410551577456 L 325.68359375 87.21604944238943 L 329.19921875 92.80334766881509 L 332.91015625 99.23540997080197 L 337.109375 107.06719732926344 L 342.08984375 116.93632997761372 L 349.21875 131.69725143180577 L 359.47265625 152.88127751295053 L 364.453125 162.5744159025685 L 368.65234375 170.20111370533513 L 372.36328125 176.4117341988877 L 375.78125 181.61647219676445 L 379.00390625 186.01534809582066 L 382.03125 189.65690434998044 L 384.86328125 192.60322372364428 L 387.40234375 194.8467418889252 L 389.84375 196.6352120395358 L 392.08984375 197.95208235710322 L 394.23828125 198.9108279474487 L 396.2890625 199.54746328231963 L 398.33984375 199.90934787868434 L 400 200" stroke-linecap="round" stroke-linejoin="round" stroke-miterlimit="10" stroke-width="2.5" stroke-opacity="0.9" stroke-dasharray=""/></g></g><g id="sketch-63382c4c"><title>Expression 5</title><path fill="#388c46" stroke="none" paint-order="stroke fill markers" d="" fill-opacity="0.4"/><g><path fill="none" stroke="#388c46" class="dcg-svg-curve" paint-order="fill stroke markers" d=" M 0 66.66666666666666 L 0 66.66666666666666 L 400 66.66666666666666" stroke-linecap="round" stroke-linejoin="round" stroke-miterlimit="10" stroke-width="2.5" stroke-opacity="0.9" stroke-dasharray=""/></g></g><g id="sketch-63382c4c"><title>sin^2 x + cos^2 x</title></g><g id="sketch-63382c4c"><title>cos^2 x</title></g><g id="sketch-63382c4c"><title>sin^2 x</title></g></g><g id="labels-63382c4c"><g transform="rotate(0,0,0) translate(200,66.66666666666666)"><g class="dcg-svg-label"><g transform="translate(-87.55000305175781,-25.666666666666657)"><g><text fill="none" stroke="#FFF" font-family="arial, sans-serif" font-size="23.1px" font-style="normal" font-weight="400" text-decoration="normal" x="0" y="20.7332" text-anchor="start" stroke-linecap="round" stroke-linejoin="round" stroke-miterlimit="2" stroke-width="3" stroke-opacity="0.9" stroke-dasharray="">sin^2 x + cos^2 x</text></g></g><g transform="translate(-87.55000305175781,-25.666666666666657)"><g><text fill="rgb(56, 140, 70)" stroke="none" font-family="arial, sans-serif" font-size="23.1px" font-style="normal" font-weight="400" text-decoration="normal" x="0" y="20.7332" text-anchor="start" fill-opacity="0.9">sin^2 x + cos^2 x</text></g></g></g></g><g transform="rotate(0,0,0) translate(200,66.66666666666666)"><g class="dcg-svg-label"><g transform="translate(-38.80000305175781,0.3333333333333428)"><g><text fill="none" stroke="#FFF" font-family="arial, sans-serif" font-size="23.1px" font-style="normal" font-weight="400" text-decoration="normal" x="0" y="20.7332" text-anchor="start" stroke-linecap="round" stroke-linejoin="round" stroke-miterlimit="2" stroke-width="3" stroke-opacity="0.9" stroke-dasharray="">cos^2 x</text></g></g><g transform="translate(-38.80000305175781,0.3333333333333428)"><g><text fill="rgb(199, 68, 64)" stroke="none" font-family="arial, sans-serif" font-size="23.1px" font-style="normal" font-weight="400" text-decoration="normal" x="0" y="20.7332" text-anchor="start" fill-opacity="0.9">cos^2 x</text></g></g></g></g><g transform="rotate(0,0,0) translate(200,200)"><g class="dcg-svg-label"><g transform="translate(-35.58332824707031,-26)"><g><text fill="none" stroke="#FFF" font-family="arial, sans-serif" font-size="23.1px" font-style="normal" font-weight="400" text-decoration="normal" x="0" y="20.7332" text-anchor="start" stroke-linecap="round" stroke-linejoin="round" stroke-miterlimit="2" stroke-width="3" stroke-opacity="0.9" stroke-dasharray="">sin^2 x</text></g></g><g transform="translate(-35.58332824707031,-26)"><g><text fill="rgb(45, 112, 179)" stroke="none" font-family="arial, sans-serif" font-size="23.1px" font-style="normal" font-weight="400" text-decoration="normal" x="0" y="20.7332" text-anchor="start" fill-opacity="0.9">sin^2 x</text></g></g></g></g></g></g></svg>