<svg version="1.1" xmlns="http://www.w3.org/2000/svg" xmlns:xlink="http://www.w3.org/1999/xlink" width="800" height="800"><defs/><g transform="scale(2,2)"><g id="background-19760916"><rect fill="white" stroke="none" x="0" y="0" width="400" height="400" class="dcg-svg-background"/></g><g id="background-images-19760916"/><g id="graphpaper-19760916"><g id="grid-19760916"><g><path fill="none" stroke="rgb(0,0,0)" class="dcg-svg-minor-gridline" paint-order="fill stroke markers" d=" M 133.5 0 L 133.5 400" stroke-opacity="0.2" stroke-miterlimit="10" stroke-dasharray=""/><path fill="none" stroke="rgb(0,0,0)" class="dcg-svg-minor-gridline" paint-order="fill stroke markers" d=" M 266.5 0 L 266.5 400" stroke-opacity="0.2" stroke-miterlimit="10" stroke-dasharray=""/><path fill="none" stroke="rgb(0,0,0)" class="dcg-svg-minor-gridline" paint-order="fill stroke markers" d=" M 0 300.5 L 400 300.5" stroke-opacity="0.2" stroke-miterlimit="10" stroke-dasharray=""/><path fill="none" stroke="rgb(0,0,0)" class="dcg-svg-minor-gridline" paint-order="fill stroke markers" d=" M 0 100.5 L 400 100.5" stroke-opacity="0.2" stroke-miterlimit="10" stroke-dasharray=""/><path fill="none" stroke="rgb(0,0,0)" class="dcg-svg-major-gridline" paint-order="fill stroke markers" d=" M 133.5 0 L 133.5 400" stroke-opacity="0.2500000000000001" stroke-miterlimit="10" stroke-dasharray=""/><path fill="none" stroke="rgb(0,0,0)" class="dcg-svg-major-gridline" paint-order="fill stroke markers" d=" M 266.5 0 L 266.5 400" stroke-opacity="0.2500000000000001" stroke-miterlimit="10" stroke-dasharray=""/><path fill="none" stroke="rgb(0,0,0)" class="dcg-svg-major-gridline" paint-order="fill stroke markers" d=" M 0 300.5 L 400 300.5" stroke-opacity="0.2500000000000001" stroke-miterlimit="10" stroke-dasharray=""/><path fill="none" stroke="rgb(0,0,0)" class="dcg-svg-major-gridline" paint-order="fill stroke markers" d=" M 0 100.5 L 400 100.5" stroke-opacity="0.2500000000000001" stroke-miterlimit="10" stroke-dasharray=""/></g></g><g id="axis-19760916"><g id="yaxis-19760916"><title>Y axis</title><g><path fill="none" stroke="rgb(0,0,0)" class="dcg-svg-axis-line" paint-order="fill stroke markers" d=" M 0 0 L 0 400" stroke-opacity="0.9" stroke-miterlimit="10" stroke-width="1.5" stroke-dasharray=""/></g></g><g id="xaxis-19760916"><title>X axis</title><g><path fill="none" stroke="rgb(0,0,0)" class="dcg-svg-axis-line" paint-order="fill stroke markers" d=" M 0 200 L 400 200" stroke-opacity="0.9" stroke-miterlimit="10" stroke-width="1.5" stroke-dasharray=""/></g></g><g><g class="dcg-svg-axis-value"><text fill="none" stroke="#ffffff" font-family="Arial" font-size="14px" font-style="normal" font-weight="normal" text-decoration="normal" x="-8.891666650772095" y="215.808" text-anchor="middle" stroke-miterlimit="2" stroke-width="3" stroke-dasharray="">0</text><text fill="#000000" stroke="none" font-family="Arial" font-size="14px" font-style="normal" font-weight="normal" text-decoration="normal" x="-8.891666650772095" y="215.808" text-anchor="middle">0</text></g><g class="dcg-svg-axis-value"><text fill="none" stroke="#ffffff" font-family="Arial" font-size="14px" font-style="normal" font-weight="normal" text-decoration="normal" x="133.33333333333331" y="215.808" text-anchor="middle" stroke-miterlimit="2" stroke-width="3" stroke-dasharray="">π/3</text><text fill="#000000" stroke="none" font-family="Arial" font-size="14px" font-style="normal" font-weight="normal" text-decoration="normal" x="133.33333333333331" y="215.808" text-anchor="middle">π/3</text></g><g class="dcg-svg-axis-value"><text fill="none" stroke="#ffffff" font-family="Arial" font-size="14px" font-style="normal" font-weight="normal" text-decoration="normal" x="266.66666666666663" y="215.808" text-anchor="middle" stroke-miterlimit="2" stroke-width="3" stroke-dasharray="">2π/3</text><text fill="#000000" stroke="none" font-family="Arial" font-size="14px" font-style="normal" font-weight="normal" text-decoration="normal" x="266.66666666666663" y="215.808" text-anchor="middle">2π/3</text></g><g class="dcg-svg-axis-value dcg-svg-offcenter-axis-value"><text fill="none" stroke="#ffffff" font-family="Arial" font-size="14px" font-style="normal" font-weight="normal" text-decoration="normal" x="392.16666650772095" y="215.808" text-anchor="middle" stroke-miterlimit="2" stroke-width="3" stroke-dasharray="">π</text><text fill="#000000" stroke="none" font-family="Arial" font-size="14px" font-style="normal" font-weight="normal" text-decoration="normal" x="392.16666650772095" y="215.808" text-anchor="middle">π</text></g><g class="dcg-svg-axis-value dcg-svg-offcenter-axis-value"><text fill="none" stroke="#ffffff" font-family="Arial" font-size="14px" font-style="normal" font-weight="normal" text-decoration="normal" x="9.224999904632568" y="393.808" text-anchor="middle" stroke-miterlimit="2" stroke-width="3" stroke-dasharray="">-2</text><text fill="rgb(150,150,150)" stroke="none" font-family="Arial" font-size="14px" font-style="normal" font-weight="normal" text-decoration="normal" x="9.224999904632568" y="393.808" text-anchor="middle" fill-opacity="1">-2</text></g><g class="dcg-svg-axis-value"><text fill="none" stroke="#ffffff" font-family="Arial" font-size="14px" font-style="normal" font-weight="normal" text-decoration="normal" x="9.224999904632568" y="303.808" text-anchor="middle" stroke-miterlimit="2" stroke-width="3" stroke-dasharray="">-1</text><text fill="rgb(150,150,150)" stroke="none" font-family="Arial" font-size="14px" font-style="normal" font-weight="normal" text-decoration="normal" x="9.224999904632568" y="303.808" text-anchor="middle" fill-opacity="1">-1</text></g><g class="dcg-svg-axis-value"><text fill="none" stroke="#ffffff" font-family="Arial" font-size="14px" font-style="normal" font-weight="normal" text-decoration="normal" x="6.891666650772095" y="103.808" text-anchor="middle" stroke-miterlimit="2" stroke-width="3" stroke-dasharray="">1</text><text fill="rgb(150,150,150)" stroke="none" font-family="Arial" font-size="14px" font-style="normal" font-weight="normal" text-decoration="normal" x="6.891666650772095" y="103.808" text-anchor="middle" fill-opacity="1">1</text></g><g class="dcg-svg-axis-value dcg-svg-offcenter-axis-value"><text fill="none" stroke="#ffffff" font-family="Arial" font-size="14px" font-style="normal" font-weight="normal" text-decoration="normal" x="6.891666650772095" y="13.808" text-anchor="middle" stroke-miterlimit="2" stroke-width="3" stroke-dasharray="">2</text><text fill="rgb(150,150,150)" stroke="none" font-family="Arial" font-size="14px" font-style="normal" font-weight="normal" text-decoration="normal" x="6.891666650772095" y="13.808" text-anchor="middle" fill-opacity="1">2</text></g></g></g></g><g id="expressions-19760916"><g id="sketch-19760916"><title>Expression 1</title><path fill="#000000" stroke="none" paint-order="stroke fill markers" d="" fill-opacity="0.4"/><g><path fill="none" stroke="#000000" class="dcg-svg-curve" paint-order="fill stroke markers" d=" M 0 200 L 0 200 L 27.83203125 178.31444003573674 L 42.67578125 167.10657501943876 L 55.07812499999999 158.0783111636776 L 66.11328125 150.37686986157416 L 76.26953125 143.6167041388622 L 85.7421875 137.63388824743055 L 94.62890625 132.3342364113625 L 103.125 127.57529170485331 L 111.328125 123.28610880641796 L 119.23828125 119.45139022195708 L 126.85546874999999 116.05227374454215 L 134.27734374999997 113.02913129577344 L 141.50390625 110.36933763955203 L 148.53515624999997 108.05842305750531 L 155.46875 106.05407763978101 L 162.30468749999997 104.3506081097605 L 169.04296875 102.94122248058564 L 175.68359374999997 101.81814335574475 L 182.2265625 100.97271876368309 L 188.76953125 100.38874422578489 L 195.31249999999997 100.06776154116504 L 200 100" stroke-linecap="round" stroke-linejoin="round" stroke-miterlimit="10" stroke-width="2.5" stroke-dasharray=""/></g></g><g id="sketch-19760916"><title>Expression 2</title><path fill="#000000" stroke="none" paint-order="stroke fill markers" d="" fill-opacity="0.4"/><g><path fill="none" stroke="#000000" class="dcg-svg-curve" paint-order="fill stroke markers" d=" M 0 200 L 8.677065758905893 193.2391916300177 M 14.198834878209645 188.93685903093805 L 22.87590063711554 182.17605066095572 M 28.40429172162564 177.88235123606393 L 37.182940429529204 171.25397836912117 M 42.77057466215873 167.03757032532545 L 51.66381325532953 160.56375326543431 M 57.355257637342795 156.48909910847 L 66.11328125 150.37686986157416 M 66.11328125 150.37686986157416 L 66.379669374246 150.19955757933758 M 72.20684477167012 146.3208945509662 L 76.26953125 143.6167041388622 M 76.26953125 143.6167041388622 L 81.44358454968551 140.34883423125598 M 87.38762589543867 136.6526204860846 L 94.62890625 132.3342364113625 M 94.62890625 132.3342364113625 L 96.87010089128815 131.078868746144 M 102.97729601660394 127.65802561888445 L 103.125 127.57529170485331 M 103.125 127.57529170485331 L 111.328125 123.28610880641796 M 111.328125 123.28610880641796 L 112.74438099047073 122.5995303122179 M 119.04323874803914 119.54594374067285 L 119.23828125 119.45139022195708 M 119.23828125 119.45139022195708 L 126.85546874999999 116.05227374454215 M 126.85546874999999 116.05227374454215 L 129.11709625830665 115.1310480268273 M 135.61753768843158 112.5358622850167 L 141.50390625 110.36933763955203 M 141.50390625 110.36933763955203 L 145.99514154718705 108.89323294413194 M 152.69130109719075 106.85697541285995 L 155.46875 106.05407763978101 M 155.46875 106.05407763978101 L 162.30468749999997 104.3506081097605 M 162.30468749999997 104.3506081097605 L 163.34599543739407 104.13280710264033 M 170.20619458700003 102.74449481488998 L 175.68359374999997 101.81814335574475 M 175.68359374999997 101.81814335574475 L 181.0835226801222 101.12041226648797 M 188.05086827473738 100.45288649742321 L 188.76953125 100.38874422578489 M 188.76953125 100.38874422578489 L 195.31249999999997 100.06776154116504 M 195.31249999999997 100.06776154116504 L 199.04000078044504 100.0352072074225 M 206.03780397541945 100.14283683509254 L 208.3984375 100.21746495888884 M 208.3984375 100.21746495888884 L 214.94140624999997 100.68775581695044 M 214.94140624999997 100.68775581695044 L 217.00684196928367 100.91898384418745 M 223.9506432114871 101.79445486981543 L 228.02734375 102.4130108421659 M 228.02734375 102.4130108421659 L 234.66796875 103.68401833716285 M 234.66796875 103.68401833716285 L 234.78047693537113 103.71002241441938 M 241.59886367992743 105.29359868505091 L 248.2421875 107.09254187406843 M 248.2421875 107.09254187406843 L 252.17470979710478 108.3125384310447 M 258.81780932555216 110.51575793912808 L 262.20703124999994 111.69964009532191 M 262.20703124999994 111.69964009532191 L 269.1149461796472 114.38071964328977 M 275.5575356330945 117.1176060052189 L 276.85546875 117.67146115395998 M 276.85546875 117.67146115395998 L 284.47265625 121.21256809290998 M 284.47265625 121.21256809290998 L 285.53492940948775 121.74620261406841 M 291.79002513136624 124.8884593683992 L 292.28515624999994 125.13718923137544 M 292.28515624999994 125.13718923137544 L 300.39062499999994 129.5065919624095 M 300.39062499999994 129.5065919624095 L 301.4635768111283 130.12366110844178 M 307.53162311167193 133.61347687642413 L 308.88671874999994 134.39281076603822 M 308.88671874999994 134.39281076603822 L 316.942102259275 139.30846751854548 M 322.83969357889634 143.07874041364954 L 327.1484375 145.85382341468767 M 327.1484375 145.85382341468767 L 332.0146874240465 149.14538752766586 M 337.80425829419926 153.0797129634127 L 346.7865293870258 159.429422091788 M 352.44494365697045 163.55001997403272 L 360.3515625 169.3610204629139 M 360.3515625 169.3610204629139 L 361.2973041161447 170.07939981593856 M 366.8715304067744 174.31354686828004 L 374.70703125 180.2653437759034 M 374.70703125 180.2653437759034 L 375.622479198064 180.97832200726845 M 381.1451276826116 185.27952575925747 L 389.82357530118634 192.03856022666878 M 395.34313545405485 196.34371335446812 L 400 200" stroke-linecap="round" stroke-linejoin="round" stroke-miterlimit="10" stroke-width="2.5" stroke-opacity="0.3" stroke-dasharray=""/></g></g><g id="sketch-19760916"><title>Expression 3</title><path fill="#000000" stroke="none" paint-order="stroke fill markers" d="" fill-opacity="0.4"/><g><path fill="none" stroke="#000000" class="dcg-svg-curve" paint-order="fill stroke markers" d=" M 0 100 L 0 100 L 6.542968749999999 100.13200910441009 L 13.085937499999998 100.52768788956743 L 19.62890625 101.18599169143074 L 26.171874999999996 102.10518246809379 L 32.8125 103.30235289551479 L 39.55078124999999 104.78591451761842 L 46.28906249999999 106.53608701803192 L 53.22265625 108.61013293640883 L 60.25390624999999 110.99005833748078 L 67.3828125 113.68005782878758 L 74.70703125 116.72542388236405 L 82.22656249999999 120.13850053652392 L 90.0390625 123.97933183487976 L 98.046875 128.21299549442682 L 106.4453125 132.9578439619827 L 115.234375 138.23526920621958 L 124.51171875 144.12452141096315 L 134.375 150.7101807770216 L 145.01953125 158.147957480589 L 156.8359375 166.74466301339558 L 170.41015625 176.96881952061545 L 187.79296874999997 190.42730085006926 L 200 200" stroke-linecap="round" stroke-linejoin="round" stroke-miterlimit="10" stroke-width="2.5" stroke-dasharray=""/></g></g><g id="sketch-19760916"><title>Expression 4</title><path fill="#000000" stroke="none" paint-order="stroke fill markers" d="" fill-opacity="0.4"/><g><path fill="none" stroke="#000000" class="dcg-svg-curve" paint-order="fill stroke markers" d=" M 0 100 L 6.542968749999999 100.13200910441009 M 6.542968749999999 100.13200910441009 L 10.990543274252623 100.4009712455869 M 17.962097062164574 101.01829001543959 L 19.62890625 101.18599169143074 M 19.62890625 101.18599169143074 L 26.171874999999996 102.10518246809379 M 26.171874999999996 102.10518246809379 L 28.84631769194793 102.58733041360077 M 35.71291484867587 103.94093475311757 L 39.55078124999999 104.78591451761842 M 39.55078124999999 104.78591451761842 L 46.28906249999999 106.53608701803192 M 46.28906249999999 106.53608701803192 L 46.39286971122791 106.56713886942505 M 53.09925740721709 108.57322064021231 L 53.22265625 108.61013293640883 M 53.22265625 108.61013293640883 L 60.25390624999999 110.99005833748078 M 60.25390624999999 110.99005833748078 L 63.47996945206714 112.20737107356624 M 69.99459076556265 114.76601950482481 L 74.70703125 116.72542388236405 M 74.70703125 116.72542388236405 L 80.07626446689164 119.16249129176043 M 86.38927009969584 122.1849975137803 L 90.0390625 123.97933183487976 M 90.0390625 123.97933183487976 L 96.16817398830248 127.21974194355035 M 102.29123101214003 130.61092083708303 L 106.4453125 132.9578439619827 M 106.4453125 132.9578439619827 L 111.7853869782912 136.16431152980795 M 117.74774963532606 139.8307579054974 L 124.51171875 144.12452141096315 M 124.51171875 144.12452141096315 L 126.9969369979663 145.78388814872284 M 132.81852571575305 149.67093134386974 L 134.375 150.7101807770216 M 134.375 150.7101807770216 L 141.8577492128289 155.9386888688003 M 147.560951700719 159.99689892586844 L 156.4559902081861 166.46824267741474 M 162.05201675048 170.67343501811737 L 170.41015625 176.96881952061545 M 170.41015625 176.96881952061545 L 170.83416090107815 177.29710118850647 M 176.36910045796097 181.58247679650793 L 185.06686261877684 188.3166384662245 M 190.59660037001416 192.60871611536876 L 199.27825475174356 199.3636311552637 M 204.80294390375317 203.66221345337868 L 213.48459828548255 210.41712849327362 M 219.00928743749216 214.71571079138857 L 227.69094181922156 221.4706258312835 M 233.21563097123118 225.7692081293985 L 234.37499999999997 226.67127574748983 M 234.37499999999997 226.67127574748983 L 242.02047783283086 232.36225708483136 M 247.6356448283699 236.54195798468166 L 247.94921875 236.7753696006582 M 247.94921875 236.7753696006582 L 256.57500112286635 242.9518327750362 M 262.3044685599875 246.97277290031553 L 270.3125 252.45896826784687 M 270.3125 252.45896826784687 L 271.3955542954829 253.16515623655948 M 277.2592044611357 256.9884541238343 L 280.17578125 258.8901606649676 M 280.17578125 258.8901606649676 L 286.572540573666 262.8404583397741 M 292.57877199997205 266.43444850174996 L 298.14453124999994 269.6727526094601 M 298.14453124999994 269.6727526094601 L 302.1492270285361 271.8550919793705 M 308.32312124613907 275.15272824027227 L 314.55078125 278.3127787735057 M 314.55078125 278.3127787735057 L 318.18650922254614 280.0196842961613 M 324.5556789713503 282.9217834853412 L 329.78515625 285.1757297898029 M 329.78515625 285.1757297898029 L 334.72460629023243 287.1121731678969 M 341.29502863430963 289.52382418226784 L 344.23828125 290.5622294939825 M 344.23828125 290.5622294939825 L 351.26953125 292.7649233092581 M 351.26953125 292.7649233092581 L 351.7621649380684 292.8997150423367 M 358.5178638823894 294.7318384768795 L 364.84374999999994 296.21214042690417 M 364.84374999999994 296.21214042690417 L 369.2645281405452 297.069885019894 M 376.16739581090326 298.2247551428832 L 378.22265625 298.54084786957685 M 378.22265625 298.54084786957685 L 384.76562499999994 299.2850414459865 M 384.76562499999994 299.2850414459865 L 387.09473184445693 299.45664186905793 M 394.0817622776474 299.85978103541726 L 397.8515625 299.9857641005824 M 397.8515625 299.9857641005824 L 400 300" stroke-linecap="round" stroke-linejoin="round" stroke-miterlimit="10" stroke-width="2.5" stroke-opacity="0.3" stroke-dasharray=""/></g></g><g id="sketch-19760916"><title>Expression 5</title><path fill="#c74440" stroke="none" paint-order="stroke fill markers" d="" fill-opacity="0.4"/><g><path fill="none" stroke="#c74440" class="dcg-svg-curve" paint-order="fill stroke markers" d=" M 0 100 L 0 100 L 7.421874999999999 94.34401905656713 L 14.55078125 89.24900615138436 L 21.484375 84.62641958577012 L 28.125 80.51966298046015 L 34.5703125 76.84433431556428 L 40.8203125 73.58161893947769 L 46.97265625 70.66729844811974 L 53.02734375 68.09396922583426 L 58.88671875 65.88754738523491 L 64.6484375 63.99478804101469 L 70.3125 62.40551242162661 L 75.9765625 61.08848514816415 L 81.54296874999999 60.061939723032566 L 87.109375 59.30281574653171 L 92.57812499999999 58.81884158164752 L 98.046875 58.59528234528054 L 103.515625 58.632550402389484 L 108.98437499999999 58.93057701038481 L 114.45312499999999 59.48881244592741 L 119.921875 60.30622701891798 L 125.48828124999999 61.402841243797866 L 131.05468749999997 62.764314456270824 L 136.71874999999997 64.41885435080442 L 142.48046875 66.37714156761749 L 148.33984375 68.64917311363965 L 154.296875 71.24415767441545 L 160.35156249999997 74.17040678212068 L 166.60156249999997 77.48937259930302 L 172.94921875 81.16224393443458 L 179.49218749999997 85.25709714513205 L 186.328125 89.85871255900034 L 193.359375 94.92280771394515 L 200 100" stroke-linecap="round" stroke-linejoin="round" stroke-miterlimit="10" stroke-width="2.5" stroke-opacity="0.9" stroke-dasharray=""/></g></g><g id="sketch-19760916"><title>Expression 6</title><path fill="#c74440" stroke="none" paint-order="stroke fill markers" d="" fill-opacity="0.4"/><g><path fill="none" stroke="#c74440" class="dcg-svg-curve" paint-order="fill stroke markers" d=" M 0 100 L 7.421874999999999 94.34401905656713 M 7.421874999999999 94.34401905656713 L 8.779435606487008 93.3737736125877 M 14.474459969577559 89.30355279501464 L 14.55078125 89.24900615138436 M 14.55078125 89.24900615138436 L 21.484375 84.62641958577012 M 21.484375 84.62641958577012 L 23.672663159206714 83.27311822450612 M 29.658271964084758 79.64534099829375 L 34.5703125 76.84433431556428 M 34.5703125 76.84433431556428 L 39.30894556884369 74.3706045595085 M 45.6056672216843 71.3148312093836 L 46.97265625 70.66729844811974 M 46.97265625 70.66729844811974 L 53.02734375 68.09396922583426 M 53.02734375 68.09396922583426 L 55.7493035852937 67.06898078767725 M 62.35204056529718 64.74916827802251 L 64.6484375 63.99478804101469 M 64.6484375 63.99478804101469 L 70.3125 62.40551242162661 M 70.3125 62.40551242162661 L 72.94240238036035 61.7939984841518 M 79.79703397512561 60.383921496412015 L 81.54296874999999 60.061939723032566 M 81.54296874999999 60.061939723032566 L 87.109375 59.30281574653171 M 87.109375 59.30281574653171 L 90.70202668813431 58.984872779585956 M 97.69042442718158 58.60985383197528 L 98.046875 58.59528234528054 M 98.046875 58.59528234528054 L 103.515625 58.632550402389484 M 103.515625 58.632550402389484 L 108.68233325402026 58.91411685458553 M 115.64027928180239 59.66625650724552 L 119.921875 60.30622701891798 M 119.921875 60.30622701891798 L 125.48828124999999 61.402841243797866 M 125.48828124999999 61.402841243797866 L 126.45716399276505 61.63981782097492 M 133.2307036997777 63.399954619790144 L 136.71874999999997 64.41885435080442 M 136.71874999999997 64.41885435080442 L 142.48046875 66.37714156761749 M 142.48046875 66.37714156761749 L 143.67460435673294 66.84017965081331 M 150.17004075699919 69.44643819032378 L 154.296875 71.24415767441545 M 154.296875 71.24415767441545 L 160.1479566368677 74.07200344168166 M 166.33420018468354 77.34739397764896 L 166.60156249999997 77.48937259930302 M 166.60156249999997 77.48937259930302 L 172.94921875 81.16224393443458 M 172.94921875 81.16224393443458 L 175.80047499359623 82.94667486016861 M 181.68629912236403 86.73406469511593 L 186.328125 89.85871255900034 M 186.328125 89.85871255900034 L 190.71356504031996 93.01722429738048 M 196.32692430061473 97.19804629327658 L 200.68359374999997 100.5383319648853 M 200.68359374999997 100.5383319648853 L 204.96014051440648 104.01299427225338 M 210.34727298251957 108.48185181298403 L 216.30859374999997 113.59294224402556 M 216.30859374999997 113.59294224402556 L 218.64668977160588 115.70019885902151 M 223.84646300205375 120.38660028782778 L 224.8046875 121.25021961453169 M 224.8046875 121.25021961453169 L 231.8660986616615 127.91513373760718 M 236.89498055592762 132.7839263402507 L 243.65234375 139.43654196217472 M 243.65234375 139.43654196217472 L 244.71328034507695 140.5214329430028 M 249.6074676579928 145.52612379720082 L 254.39453125 150.42127223464576 M 254.39453125 150.42127223464576 L 257.2484141053482 153.4386473867707 M 262.05846533172524 158.52425523634275 L 266.6015625 163.32761585205685 M 266.6015625 163.32761585205685 L 269.5725398133763 166.55750404020654 M 274.311486445872 171.7094342429905 L 281.54296874999994 179.57111638097115 M 281.54296874999994 179.57111638097115 L 281.75620511630024 179.80732700781746 M 286.4468135855912 185.0033054708036 L 293.81776975161984 193.16841448406757 M 298.5083782209108 198.36439294705372 L 305.87933438693943 206.52950196031767 M 310.58650316515656 211.71047041387087 L 317.9901495122496 219.84594954955645 M 322.7015608240361 225.02307263590183 L 328.32031249999994 231.19722451801456 M 328.32031249999994 231.19722451801456 L 330.13296169513166 233.13293019761093 M 334.9176339003778 238.24242252937395 L 342.1875 246.00582271554265 M 342.1875 246.00582271554265 L 342.4408793020985 246.26736260385198 M 347.31157011782 251.29492373999403 L 353.90625 258.1019984518457 M 353.90625 258.1019984518457 L 354.9864823247967 259.1746644821542 M 359.95359485151243 264.10698575584917 L 364.25781249999994 268.38105528015797 M 364.25781249999994 268.38105528015797 L 367.8326370984702 271.78207485441084 M 372.9041349753729 276.6070006864388 L 373.73046875 277.3931587943291 M 373.73046875 277.3931587943291 L 381.0309941938534 284.01969098617974 M 386.2957976565188 288.6321914929887 L 390.91796875 292.61874521286455 M 390.91796875 292.61874521286455 L 394.7109675830281 295.71477030877935" stroke-linecap="round" stroke-linejoin="round" stroke-miterlimit="10" stroke-width="2.5" stroke-opacity="0.3" stroke-dasharray=""/></g></g><g id="sketch-19760916"><title>cos</title></g><g id="sketch-19760916"><title>sin</title></g><g id="sketch-19760916"><title>f(x)</title></g><g id="sketch-19760916"><title>Expression 10</title><path fill="#388c46" stroke="none" paint-order="stroke fill markers" d="" fill-opacity="0.4"/><g><path fill="none" stroke="#388c46" class="dcg-svg-curve" paint-order="fill stroke markers" d=" M 0 100 L 0 100 L 7.617187499999999 106.15785673861616 L 15.625 112.99311406005063 L 24.121093749999996 120.62068576442185 L 33.10546874999999 129.07024947334543 L 42.87109375 138.653534537489 L 53.61328124999999 149.60953200356875 L 65.72265625 162.3856708506509 L 80.37109375 178.28402606402344 L 103.61328124999999 204.01280773606192 L 127.24609374999999 230.03236452485015 L 141.40625 245.1844105185756 L 153.22265625 257.40892261833756 L 163.671875 267.81065751562267 L 173.2421875 276.93866629562933 L 182.12890624999997 285.0266969659471 L 190.4296875 292.2082135887405 L 198.33984374999997 298.6876528331126 L 200 300" stroke-linecap="round" stroke-linejoin="round" stroke-miterlimit="10" stroke-width="2.5" stroke-dasharray=""/></g></g><g id="sketch-19760916"><title>Expression 11</title><path fill="#388c46" stroke="none" paint-order="stroke fill markers" d="" fill-opacity="0.4"/><g><path fill="none" stroke="#388c46" class="dcg-svg-curve" paint-order="fill stroke markers" d=" M 0 100 L 7.617187499999999 106.15785673861616 M 7.617187499999999 106.15785673861616 L 8.533755862318593 106.94021529273233 M 13.857930686176088 111.48479034932475 L 15.625 112.99311406005063 M 15.625 112.99311406005063 L 22.081505714615375 118.789596743391 M 27.22362277646317 123.53853109789081 L 33.10546874999999 129.07024947334543 M 33.10546874999999 129.07024947334543 L 35.19357896908925 131.11937131397352 M 40.189749940727026 136.02225573257488 L 42.87109375 138.653534537489 M 42.87109375 138.653534537489 L 47.9421241548243 143.82549753531123 M 52.84285979294211 148.8237762595604 L 53.61328124999999 149.60953200356875 M 53.61328124999999 149.60953200356875 L 60.42333145593307 156.79455575472034 M 65.23873096684065 161.87509977582192 L 65.72265625 162.3856708506509 M 65.72265625 162.3856708506509 L 72.69965127770924 169.95799692791718 M 77.44289519227361 175.10597101166584 L 80.37109375 178.28402606402344 M 80.37109375 178.28402606402344 L 84.84802541612922 183.23992780083174 M 89.5403947756912 188.4343160991248 L 96.91411805500289 196.59692628215674 M 101.60648741456487 201.7913145804498 L 103.61328124999999 204.01280773606192 M 103.61328124999999 204.01280773606192 L 108.99623931149402 209.93940589160135 M 113.70262267943285 215.12110016992276 L 121.09836797190815 223.26376260728497 M 125.80475133984697 228.4454568856064 L 127.24609374999999 230.03236452485015 M 127.24609374999999 230.03236452485015 L 133.29302519883717 236.5028710514773 M 138.0725435082825 241.61718476200355 L 141.40625 245.1844105185756 M 141.40625 245.1844105185756 L 145.65793962513104 249.582941693555 M 150.52296189390404 254.61598831805023 L 153.22265625 257.40892261833756 M 153.22265625 257.40892261833756 L 158.26556591748212 262.42891604819135 M 163.2265725758971 267.3673786566518 L 163.671875 267.81065751562267 M 163.671875 267.81065751562267 L 171.17713933114342 274.9690568584809 M 176.30859770294032 279.7294848718509 L 182.12890624999997 285.0266969659471 M 182.12890624999997 285.0266969659471 L 184.49599723660438 287.0746130302289 M 189.7897623280988 291.6545749466726 L 190.4296875 292.2082135887405 M 190.4296875 292.2082135887405 L 198.28466282183638 298.64245252856944 M 203.8237198991973 302.92245709053117 L 205.85937499999997 304.49444753177715 M 205.85937499999997 304.49444753177715 L 212.6836041077849 309.44030786946365 M 218.47136259150878 313.37712383236635 L 220.01953125 314.4250304921204 M 220.01953125 314.4250304921204 L 226.75781249999997 318.66103669128205 M 226.75781249999997 318.66103669128205 L 227.77105272049073 319.24878515357847 M 233.83705500871494 322.74138456591743 L 239.6484375 325.82959321787934 M 239.6484375 325.82959321787934 L 243.62775146058522 327.75127591459665 M 250.00777143724144 330.62835663185564 L 251.85546874999997 331.4310704743127 M 251.85546874999997 331.4310704743127 L 257.81249999999994 333.7290704232481 M 257.81249999999994 333.7290704232481 L 260.27655431205886 334.56055369979254 M 266.9552805710676 336.65125110634415 L 269.3359375 337.3398168831195 M 269.3359375 337.3398168831195 L 274.99999999999994 338.70398453221475 M 274.99999999999994 338.70398453221475 L 277.6469863968361 339.2143570358541 M 284.55163709354116 340.3544225730914 L 286.1328125 340.5834176327358 M 286.1328125 340.5834176327358 L 291.6015625 341.113814343108 M 291.6015625 341.113814343108 L 295.50472251221254 341.30659458395917 M 302.50280620027013 341.3931756436026 L 302.53906249999994 341.39323741319333 M 302.53906249999994 341.39323741319333 L 308.0078125 341.14174836462075 M 308.0078125 341.14174836462075 L 313.47314215405925 340.63023719816687 M 320.3934786481796 339.58553932030526 L 324.51171874999994 338.8087704111157 M 324.51171874999994 338.8087704111157 L 330.078125 337.49358978675184 M 330.078125 337.49358978675184 L 331.1261894956733 337.19606014538397 M 337.8317957637587 335.192401078646 L 341.50390625 333.9741440102618 M 341.50390625 333.9741440102618 L 347.36328125 331.7489502487862 M 347.36328125 331.7489502487862 L 348.1571048514362 331.40937744220923 M 354.5703551610878 328.60617473283867 L 359.375 326.32099209919284 M 359.375 326.32099209919284 L 364.4075030951533 323.68817000662744 M 370.5095081834872 320.25948676596965 L 371.87499999999994 319.4803370195399 M 371.87499999999994 319.4803370195399 L 378.41796874999994 315.43627548851555 M 378.41796874999994 315.43627548851555 L 379.86328183211083 314.4746574401598 M 385.6795766395519 310.58023188525567 L 392.1875 305.94388492023575 M 392.1875 305.94388492023575 L 394.5847036244352 304.1244769436548" stroke-linecap="round" stroke-linejoin="round" stroke-miterlimit="10" stroke-width="2.5" stroke-opacity="0.3" stroke-dasharray=""/></g></g><g id="sketch-19760916"><title>f'(x)</title></g></g><g id="labels-19760916"><g transform="rotate(0,0,0) translate(200,200)"><g class="dcg-svg-label"><g transform="translate(-23.966659545898438,-18)"><g><text fill="none" stroke="#FFF" font-family="arial, sans-serif" font-size="15.4px" font-style="normal" font-weight="400" text-decoration="normal" x="0" y="14.4888" text-anchor="start" stroke-linecap="round" stroke-linejoin="round" stroke-miterlimit="2" stroke-width="3" stroke-dasharray="">cos</text></g></g><g transform="translate(-23.966659545898438,-18)"><g><text fill="rgb(0, 0, 0)" stroke="none" font-family="arial, sans-serif" font-size="15.4px" font-style="normal" font-weight="400" text-decoration="normal" x="0" y="14.4888" text-anchor="start">cos</text></g></g></g></g><g transform="rotate(0,0,0) translate(200,100)"><g class="dcg-svg-label"><g transform="translate(-19.683334350585938,0)"><g><text fill="none" stroke="#FFF" font-family="arial, sans-serif" font-size="15.4px" font-style="normal" font-weight="400" text-decoration="normal" x="0" y="14.4888" text-anchor="start" stroke-linecap="round" stroke-linejoin="round" stroke-miterlimit="2" stroke-width="3" stroke-opacity="0.9" stroke-dasharray="">sin</text></g></g><g transform="translate(-19.683334350585938,0)"><g><text fill="rgb(0, 0, 0)" stroke="none" font-family="arial, sans-serif" font-size="15.4px" font-style="normal" font-weight="400" text-decoration="normal" x="0" y="14.4888" text-anchor="start" fill-opacity="0.9">sin</text></g></g></g></g><g transform="rotate(0,0,0) translate(100,59)"><g class="dcg-svg-label"><g transform="translate(-11.116668701171875,0)"><g><text fill="none" stroke="#FFF" font-family="arial, sans-serif" font-size="15.4px" font-style="normal" font-weight="400" text-decoration="normal" x="0" y="14.4888" text-anchor="start" stroke-linecap="round" stroke-linejoin="round" stroke-miterlimit="2" stroke-width="3" stroke-opacity="0.9" stroke-dasharray="">f(x)</text></g></g><g transform="translate(-11.116668701171875,0)"><g><text fill="rgb(199, 68, 64)" stroke="none" font-family="arial, sans-serif" font-size="15.4px" font-style="normal" font-weight="400" text-decoration="normal" x="0" y="14.4888" text-anchor="start" fill-opacity="0.9">f(x)</text></g></g></g></g><g transform="rotate(0,0,0) translate(100,200)"><g class="dcg-svg-label"><g transform="translate(0,-18)"><g><text fill="none" stroke="#FFF" font-family="arial, sans-serif" font-size="15.4px" font-style="normal" font-weight="400" text-decoration="normal" x="0" y="14.4888" text-anchor="start" stroke-linecap="round" stroke-linejoin="round" stroke-miterlimit="2" stroke-width="3" stroke-opacity="0.9" stroke-dasharray="">f'(x)</text></g></g><g transform="translate(0,-18)"><g><text fill="rgb(56, 140, 70)" stroke="none" font-family="arial, sans-serif" font-size="15.4px" font-style="normal" font-weight="400" text-decoration="normal" x="0" y="14.4888" text-anchor="start" fill-opacity="0.9">f'(x)</text></g></g></g></g></g></g></svg>